<?xml version="1.0" encoding="UTF-8"?>
<!DOCTYPE svg PUBLIC "-//W3C//DTD SVG 1.1//EN" "http://www.w3.org/Graphics/SVG/1.1/DTD/svg11.dtd">
<!-- Creator: CorelDRAW 2021 (64-Bit) -->
<svg xmlns="http://www.w3.org/2000/svg" xml:space="preserve" width="55.3377mm" height="10.8292mm" version="1.1" style="shape-rendering:geometricPrecision; text-rendering:geometricPrecision; image-rendering:optimizeQuality; fill-rule:evenodd; clip-rule:evenodd"
viewBox="0 0 164.07 32.11"
 xmlns:xlink="http://www.w3.org/1999/xlink"
 xmlns:xodm="http://www.corel.com/coreldraw/odm/2003">
 <defs>
  <style type="text/css">
   <![CDATA[
    .fil1 {fill:#FEFEFE}
    .fil0 {fill:black}
   ]]>
  </style>
 </defs>
 <g id="Layer_x0020_1">
  <metadata id="CorelCorpID_0Corel-Layer"/>
  <path class="fil0" d="M96.83 21.28c-0.05,-0.03 -0.14,-0.06 -0.23,-0.08 -0.01,0.86 0.03,1.75 0.02,2.49 -0.01,0.72 -0,1.46 -0.04,2.18 -0.02,0.37 -0.05,0.72 -0.32,1 -0.29,0.29 -0.25,0.17 -0.47,0.64l-0.2 0.42 -0.47 -0.02c-1.01,-0.04 -1.95,-0.33 -2.96,-0.34 -1.11,-0.01 -2.22,0 -3.32,-0.01l-0.37 -0.01 -0.2 -0.31c-0.25,-0.39 -0.28,-0.67 -0.47,-1.03 -0.17,-0.32 -0.43,-0.45 -0.61,-0.77 -0.06,-0.1 -0.1,-0.2 -0.14,-0.31 -0.18,-0.53 -0.1,-1.16 -0.1,-1.71 -0,-0.96 -0.16,-1.87 -0.42,-2.8 -0.04,-0.15 -0.12,-0.47 -0.19,-0.64 -0.25,-0.16 -0.44,-0.25 -0.7,-0.46l-0.39 -0.31 0.17 -0.47c0.07,-0.18 0.32,-0.87 0.31,-1.1 -0.07,-0.08 -0.18,-0.19 -0.25,-0.27 -0.22,-0.26 -0.38,-0.54 -0.51,-0.86 -0.17,-0.44 -0.25,-1.35 -0.3,-1.84 -0.06,-0.48 -0.1,-1.02 -0.19,-1.49 -0.19,-1 -0.78,-1.69 -1.12,-2.61 -0.42,-1.14 -0.21,-2.16 0.32,-3.23l0.19 -0.38 0.42 -0.01c1.13,-0.03 2.23,0.19 3.35,0.21 0.57,0.01 1.14,0.03 1.71,0.06 0.26,0.02 0.61,0.04 0.86,0.1 0.06,0.01 0.11,0.03 0.17,0.05l0.06 0.02 0.55 0.28 0.1 0.12c0.7,0.88 0.36,2.14 0.38,3.18 0.51,0.5 0.95,1.13 0.77,1.88 -0.1,0.44 -0.38,0.75 -0.61,1.06l0.74 0.28c0.53,-1.46 0.85,-5.26 1.05,-6.65l0.08 -0.54 0.54 -0.06c0.82,-0.08 1.63,-0.01 2.45,-0.04 0.86,-0.04 2.6,-0.23 3.13,0.62 0.26,0.4 0.2,0.87 0.16,1.32 -0.05,0.51 -0.06,0.97 0,1.48 0.09,0.66 0.64,1.17 0.84,1.88 0.18,0.65 0.13,1.33 0.06,1.99 -0.04,0.38 -0.16,0.92 -0.13,1.38 0.33,-1.01 0.63,-2 0.7,-3.12 0.17,-2.42 -1.27,-2.31 0.43,-5.02l0.2 -0.32 0.38 -0.01c0.58,-0.01 1.07,0.04 1.64,0.1 0.57,0.06 1.06,0.02 1.63,-0.07 1.08,-0.17 3.69,-0.74 3.8,0.99l0 0.02 0 0.31 -0.01 0.05c-0.24,1.56 -0.99,0.68 -0.65,2.73 0.07,0.44 0.07,0.87 -0.18,1.25 -0.17,0.26 -0.38,0.39 -0.52,0.68 -0.02,0.04 -0.07,0.14 -0.08,0.19 0.01,0.06 0.07,0.18 0.1,0.25 0.09,0.24 0.15,0.48 0.17,0.73l0.03 0.36 -0.27 0.24c-0.13,0.11 -0.6,0.51 -0.65,0.68 -0.03,0.11 -0.01,0.35 -0,0.47 0.02,0.44 0.04,0.87 0.02,1.31 -0.03,0.77 -0.13,1.39 -0.48,2.08 -0.18,0.35 -0.36,0.66 -0.5,1.03 -0.13,0.33 -0.1,0.94 -0.11,1.3 -0.01,0.72 -0.05,1.4 -0.29,2.09 -0.12,0.34 -0.48,0.96 -0.52,1.27 -0.03,0.19 -0,0.34 0.03,0.52 0.08,0.4 0.13,0.71 0.1,1.12l-0.03 0.37 -0.33 0.18c-1.94,1.06 -2.24,0.05 -3.8,0.3 -1.24,0.2 -3.83,0.27 -4.26,-1.24 -0.06,-0.21 -0.07,-0.36 -0.1,-0.57 -0.07,-0.6 -0.26,-1.75 -0.12,-2.35 0.12,-0.49 -0.01,-1.57 -0.04,-2.06 -0,-0.04 -0.01,-0.14 -0.03,-0.19zm29.35 -6.58c0.03,0.26 0.11,0.63 0.14,0.81 0.2,1.08 0.41,2.16 0.61,3.24 0.48,2.57 0.59,7.46 -1.91,9.05 -1.24,0.79 -5.44,0.83 -6.92,0.79 -1.72,-0.05 -6.61,-0.24 -7.24,-2.3 -0.26,-0.86 0.09,-1.48 -0.18,-2.39 -0.3,-1.01 -0.27,-1.69 -0.17,-2.72 0.08,-0.86 0.04,-1.69 0.04,-2.55 -0,-0.19 0.01,-0.71 -0.04,-0.94 -0.22,-0.22 -0.33,-0.37 -0.48,-0.69l-0.16 -0.36 0.22 -0.32c0.16,-0.23 0.49,-0.75 0.49,-1.05 0,-0.13 -0.12,-0.31 -0.18,-0.43 -0.08,-0.16 -0.14,-0.31 -0.18,-0.48 -0.22,-1.1 0.9,-5.46 1.91,-6.02 1.34,-0.76 5.13,-0.84 6.74,-0.8 0.28,0.01 0.56,-0.01 0.84,-0.04 2.15,-0.2 3.46,-0.49 5.46,0.76 0.74,0.46 1.01,1.25 1.72,1.8l0.36 0.28 -0.11 0.44c-0.1,0.4 -0.67,1.49 -0.67,1.72 0.21,0.51 0.44,0.7 0.23,1.34 -0.12,0.37 -0.25,0.64 -0.51,0.87zm-8.19 -2.91c0.01,0.09 0.02,0.18 0.03,0.26 0.08,0.65 0.35,1.8 0.27,2.41 -0.17,1.22 -0.06,2.29 -0.13,3.5 -0.02,0.35 -0.06,0.73 -0.27,0.99 0,0.07 0.01,0.15 0.02,0.21l0.32 4.79 0.99 0.06 0.08 -0.11c-0.1,-0.26 -0.18,-0.26 -0.41,-0.59 -0.26,-0.38 -0.23,-0.81 -0.16,-1.24 0.13,-0.84 0.36,-1.73 0.56,-2.55 0.02,-0.09 0.06,-0.25 0.08,-0.37 -0.18,-0.24 -0.26,-0.43 -0.33,-0.76l-0.01 -0.05 -0.35 -6.53 -0.67 -0.02zm37.26 14.27c-0.47,-0.63 -0.87,-1.35 -1.03,-2.12 -0.12,-0.59 -0.06,-1.03 -0.03,-1.61 0.02,-0.32 -0.03,-0.58 -0.12,-0.82 -0.83,1.6 -0.76,4 -0.94,5.64l-0.06 0.59 -0.59 0.03c-0.91,0.05 -1.99,-0.19 -2.94,-0.21 -1.12,-0.02 -2.23,-0.01 -3.35,-0.01l-0.67 0 -0.03 -0.67c-0.02,-0.49 -0.12,-1.21 0.24,-1.6 0.19,-0.2 0.18,-0.1 0.32,-0.35 0.05,-0.1 0.09,-0.18 0.09,-0.29 0,-0.37 -0.06,-0.66 -0.03,-1.07l0.04 -0.42 1 -0.43 -0.18 -2.31 0.24 -0.23c0.11,-0.11 0.49,-0.48 0.57,-0.65 -0.09,-0.62 -0.08,-0.88 0.23,-1.48 0.42,-0.81 1.03,-0.78 1.05,-1.59 -0.28,-0.21 -0.49,-0.17 -0.78,-0.82 -0.32,-0.73 0.01,-0.86 -0.41,-1.54 -0.65,-1.04 -0.24,-0.98 -0.26,-1.95 -0.01,-0.8 -0.3,-1.58 -0.61,-2.3 -0.27,-0.61 -0.71,-1.44 -0.79,-2.1l-0.09 -0.81 7.14 0.26 0.15 0.47c0.15,0.47 0.24,0.97 0.12,1.46 -0.07,0.28 -0.18,0.43 -0.28,0.68 -0.05,0.13 0.22,0.53 0.28,0.62 0.07,0.11 0.15,0.22 0.23,0.32 0.07,-0.26 0.13,-0.5 0.16,-0.66 0.16,-0.89 0.3,-1.86 0.93,-2.56 1.12,-1.25 4.35,-0.86 5.93,-0.91l0.73 -0.02 -0.01 0.73c-0.02,1.68 -0.21,2.68 -0.9,4.17 -0.12,0.26 -0.24,0.52 -0.32,0.79 -0.02,0.06 -0.06,0.17 -0.07,0.25 0.15,0.38 0.19,0.57 0.19,1.01l0 0.35 -0.29 0.21c-0.79,0.58 -0.94,1 -0.76,1.99 0.15,0.8 0.1,1.58 0.23,2.33 0.05,0.26 0.13,0.49 0.27,0.72 0.52,0.86 0.85,1.78 1.26,2.69 0.27,0.61 0.83,1.3 1.18,1.89 0.15,0.24 0.29,0.5 0.4,0.76l1.37 2.58 -2.18 0.05c-0.65,0.28 -1.65,0.17 -2.29,0.12 -0.23,-0.02 -0.89,-0.09 -1.33,-0.09l0.11 0.42 -3.79 -0.09 0.39 -0.94c0.08,-0.2 0.16,-0.37 0.28,-0.53zm-24.76 -15.9c-0.45,-0.49 -0.76,-0.98 -0.8,-1.77l-0.03 -0.53 0.51 -0.17c1.47,-0.48 3.19,-0.89 4.74,-0.6 0.4,0.08 0.77,0.19 1.15,0.34 0.22,0.08 0.47,0.19 0.71,0.23 0.04,0.01 0.07,0.01 0.11,0.02 0.72,0.07 1.88,-0.29 2.65,-0.38 1.48,-0.18 2.75,0.09 4,0.94 2.61,1.78 1.97,3.5 1.77,6.26 -0.04,0.59 -0.06,1.39 -0.56,1.79 -0.54,0.43 -1.69,0.24 -2.35,0.22 -1.05,-0.02 -2.9,0.24 -3.79,-0.29l-0.13 -0.08 -0.09 -0.13c-0.67,-0.97 -0.38,-2.93 -0.36,-4.17 -0.19,-0.22 -0.53,-0.38 -0.87,-0.46 0.01,1.2 0.16,2.41 0.1,3.62 -0.03,0.6 -0.25,1.29 -0.23,1.85 0.01,0.2 0.01,0.31 0.11,0.48 0.22,0.36 0.31,0.63 0.35,1.06 0.14,1.54 0.28,7.43 -0.35,8.62l-0.05 0.1 -0.08 0.08c-1.1,1.06 -2.33,0.94 -3.73,0.82 -1.48,-0.13 -2.37,0.8 -3.78,-0.5l-0.56 -0.52 1.08 -0.98c-0.08,-0.9 -0.24,-1.78 -0.37,-2.67 -0.26,-1.73 -0.32,-3.19 -0.02,-4.93 0.07,-0.43 0.27,-1.26 0.25,-1.67 -0.01,-0.14 -0.01,-0.28 -0.08,-0.4 -0.28,-0.43 -0.3,-0.88 -0.29,-1.38 0.01,-1.92 0.11,-1.4 -0.76,-2.95l-0.37 -0.67 0.7 -0.31c0.43,-0.19 0.69,-0.51 1.09,-0.72 0.12,-0.06 0.24,-0.11 0.35,-0.15z"/>
  <path class="fil0" d="M95.08 19.53c-0.05,-0.02 -0.14,-0.06 -0.23,-0.08 -0.01,0.86 0.03,1.75 0.02,2.49 -0.01,0.72 -0,1.46 -0.04,2.18 -0.02,0.37 -0.05,0.72 -0.32,1 -0.29,0.29 -0.25,0.17 -0.47,0.64l-0.2 0.42 -0.47 -0.02c-1.01,-0.04 -1.95,-0.33 -2.96,-0.34 -1.11,-0.01 -2.22,0 -3.32,-0.01l-0.37 -0.01 -0.2 -0.31c-0.25,-0.39 -0.28,-0.67 -0.47,-1.03 -0.17,-0.32 -0.43,-0.45 -0.61,-0.77 -0.06,-0.1 -0.1,-0.2 -0.14,-0.31 -0.18,-0.53 -0.1,-1.16 -0.1,-1.71 -0,-0.96 -0.16,-1.87 -0.42,-2.8 -0.04,-0.15 -0.12,-0.47 -0.19,-0.64 -0.25,-0.16 -0.44,-0.25 -0.7,-0.46l-0.39 -0.31 0.17 -0.47c0.07,-0.18 0.32,-0.87 0.31,-1.1 -0.07,-0.08 -0.18,-0.19 -0.25,-0.27 -0.22,-0.26 -0.38,-0.54 -0.51,-0.86 -0.17,-0.44 -0.25,-1.35 -0.3,-1.84 -0.06,-0.48 -0.1,-1.02 -0.19,-1.49 -0.19,-1 -0.78,-1.69 -1.12,-2.61 -0.42,-1.14 -0.21,-2.16 0.32,-3.23l0.19 -0.38 0.42 -0.01c1.13,-0.03 2.23,0.19 3.35,0.21 0.57,0.01 1.14,0.03 1.71,0.06 0.26,0.02 0.61,0.04 0.86,0.1 0.06,0.01 0.11,0.03 0.17,0.05l0.06 0.02 0.55 0.28 0.1 0.12c0.7,0.88 0.36,2.14 0.38,3.19 0.51,0.5 0.95,1.13 0.77,1.88 -0.1,0.44 -0.38,0.75 -0.61,1.06l0.74 0.28c0.53,-1.46 0.85,-5.26 1.05,-6.65l0.08 -0.54 0.54 -0.05c0.82,-0.08 1.63,-0.01 2.45,-0.04 0.86,-0.04 2.6,-0.23 3.13,0.62 0.26,0.4 0.2,0.87 0.16,1.32 -0.05,0.51 -0.06,0.97 0,1.48 0.09,0.66 0.64,1.17 0.84,1.88 0.18,0.65 0.13,1.33 0.06,1.99 -0.04,0.38 -0.16,0.92 -0.13,1.38 0.33,-1.01 0.63,-2 0.7,-3.12 0.17,-2.42 -1.27,-2.31 0.43,-5.02l0.2 -0.32 0.38 -0.01c0.58,-0.01 1.07,0.04 1.64,0.1 0.58,0.06 1.06,0.02 1.63,-0.07 1.08,-0.17 3.69,-0.74 3.8,0.99l0 0.02 0 0.31 -0.01 0.05c-0.24,1.56 -0.99,0.68 -0.65,2.73 0.07,0.44 0.07,0.87 -0.18,1.25 -0.17,0.26 -0.38,0.39 -0.52,0.68 -0.02,0.04 -0.07,0.14 -0.08,0.19 0.01,0.06 0.07,0.18 0.1,0.25 0.09,0.24 0.15,0.48 0.17,0.73l0.03 0.36 -0.27 0.24c-0.13,0.11 -0.6,0.51 -0.65,0.68 -0.03,0.11 -0.01,0.35 -0,0.46 0.02,0.44 0.04,0.87 0.02,1.31 -0.03,0.77 -0.13,1.39 -0.48,2.08 -0.18,0.35 -0.36,0.66 -0.5,1.03 -0.13,0.33 -0.1,0.94 -0.11,1.3 -0.01,0.72 -0.05,1.41 -0.29,2.09 -0.12,0.34 -0.48,0.96 -0.52,1.27 -0.03,0.19 -0,0.34 0.03,0.52 0.08,0.4 0.13,0.71 0.1,1.12l-0.03 0.37 -0.33 0.18c-1.94,1.06 -2.24,0.05 -3.8,0.3 -1.24,0.2 -3.83,0.27 -4.26,-1.24 -0.06,-0.21 -0.07,-0.36 -0.1,-0.57 -0.07,-0.6 -0.26,-1.75 -0.12,-2.35 0.12,-0.49 -0.01,-1.57 -0.04,-2.06 -0,-0.04 -0.01,-0.14 -0.03,-0.19zm29.35 -6.58c0.03,0.26 0.11,0.63 0.14,0.81 0.2,1.08 0.41,2.16 0.61,3.24 0.48,2.57 0.59,7.46 -1.91,9.05 -1.24,0.79 -5.44,0.83 -6.92,0.79 -1.72,-0.05 -6.61,-0.24 -7.24,-2.3 -0.26,-0.86 0.09,-1.48 -0.18,-2.39 -0.3,-1.01 -0.27,-1.69 -0.17,-2.72 0.08,-0.86 0.04,-1.69 0.04,-2.55 -0,-0.19 0.01,-0.71 -0.04,-0.94 -0.22,-0.22 -0.33,-0.37 -0.48,-0.69l-0.16 -0.36 0.22 -0.33c0.16,-0.23 0.49,-0.75 0.49,-1.05 0,-0.13 -0.12,-0.31 -0.18,-0.43 -0.08,-0.16 -0.14,-0.31 -0.18,-0.48 -0.22,-1.1 0.9,-5.46 1.91,-6.02 1.34,-0.76 5.13,-0.84 6.74,-0.8 0.28,0.01 0.56,-0.01 0.84,-0.04 2.15,-0.2 3.46,-0.49 5.46,0.76 0.74,0.46 1.02,1.25 1.72,1.8l0.36 0.28 -0.11 0.44c-0.1,0.4 -0.67,1.49 -0.67,1.72 0.21,0.51 0.44,0.7 0.23,1.34 -0.12,0.37 -0.25,0.64 -0.51,0.87zm-8.19 -2.91c0.01,0.09 0.02,0.18 0.03,0.26 0.08,0.65 0.35,1.8 0.27,2.41 -0.17,1.22 -0.06,2.29 -0.13,3.5 -0.02,0.35 -0.06,0.73 -0.27,0.99 0,0.07 0.01,0.15 0.02,0.21l0.32 4.79 0.99 0.06 0.08 -0.11c-0.1,-0.26 -0.18,-0.26 -0.41,-0.59 -0.26,-0.38 -0.23,-0.81 -0.16,-1.24 0.13,-0.84 0.36,-1.73 0.56,-2.55 0.02,-0.09 0.06,-0.25 0.08,-0.37 -0.18,-0.24 -0.26,-0.43 -0.33,-0.76l-0.01 -0.05 -0.35 -6.53 -0.67 -0.02zm37.26 14.27c-0.47,-0.63 -0.87,-1.35 -1.03,-2.12 -0.12,-0.59 -0.06,-1.03 -0.03,-1.61 0.01,-0.32 -0.03,-0.58 -0.12,-0.82 -0.83,1.61 -0.76,4 -0.94,5.64l-0.06 0.59 -0.59 0.03c-0.91,0.05 -1.99,-0.19 -2.94,-0.21 -1.12,-0.02 -2.23,-0.01 -3.35,-0.01l-0.67 0 -0.03 -0.67c-0.02,-0.49 -0.12,-1.21 0.24,-1.6 0.19,-0.2 0.18,-0.1 0.32,-0.35 0.05,-0.1 0.09,-0.18 0.09,-0.29 0,-0.37 -0.07,-0.66 -0.03,-1.07l0.04 -0.42 1 -0.43 -0.18 -2.31 0.24 -0.23c0.11,-0.11 0.49,-0.48 0.57,-0.65 -0.09,-0.62 -0.08,-0.88 0.23,-1.48 0.42,-0.81 1.03,-0.78 1.05,-1.59 -0.28,-0.21 -0.49,-0.17 -0.78,-0.82 -0.32,-0.73 0.01,-0.86 -0.41,-1.54 -0.65,-1.04 -0.24,-0.98 -0.26,-1.95 -0.01,-0.8 -0.3,-1.58 -0.61,-2.3 -0.27,-0.61 -0.71,-1.44 -0.79,-2.1l-0.09 -0.8 7.14 0.26 0.15 0.47c0.15,0.47 0.24,0.97 0.12,1.47 -0.07,0.28 -0.18,0.43 -0.28,0.68 -0.05,0.13 0.22,0.53 0.28,0.62 0.07,0.11 0.15,0.22 0.23,0.32 0.07,-0.26 0.13,-0.5 0.16,-0.66 0.16,-0.89 0.3,-1.86 0.93,-2.56 1.12,-1.25 4.36,-0.86 5.93,-0.91l0.73 -0.02 -0.01 0.73c-0.02,1.68 -0.21,2.68 -0.9,4.18 -0.12,0.26 -0.24,0.52 -0.32,0.79 -0.02,0.06 -0.06,0.17 -0.07,0.25 0.15,0.38 0.19,0.57 0.19,1.01l0 0.35 -0.29 0.21c-0.79,0.58 -0.94,1 -0.76,1.99 0.15,0.8 0.1,1.58 0.23,2.33 0.05,0.26 0.13,0.49 0.27,0.72 0.52,0.86 0.85,1.78 1.26,2.69 0.27,0.61 0.83,1.3 1.18,1.89 0.15,0.24 0.29,0.5 0.4,0.76l1.37 2.58 -2.18 0.05c-0.65,0.28 -1.65,0.17 -2.29,0.12 -0.23,-0.02 -0.89,-0.09 -1.33,-0.09l0.11 0.42 -3.79 -0.09 0.39 -0.94c0.08,-0.2 0.16,-0.37 0.28,-0.53zm-24.76 -15.9c-0.45,-0.49 -0.76,-0.98 -0.8,-1.77l-0.03 -0.53 0.51 -0.17c1.47,-0.48 3.19,-0.89 4.74,-0.6 0.4,0.08 0.77,0.19 1.15,0.34 0.22,0.08 0.47,0.19 0.71,0.23 0.04,0.01 0.07,0.01 0.11,0.02 0.72,0.07 1.88,-0.29 2.65,-0.38 1.48,-0.18 2.75,0.09 4,0.94 2.61,1.78 1.97,3.5 1.77,6.26 -0.04,0.6 -0.06,1.39 -0.56,1.79 -0.54,0.43 -1.69,0.24 -2.35,0.22 -1.05,-0.02 -2.9,0.24 -3.79,-0.28l-0.13 -0.08 -0.09 -0.13c-0.67,-0.97 -0.38,-2.93 -0.36,-4.17 -0.19,-0.22 -0.53,-0.38 -0.87,-0.46 0.01,1.2 0.16,2.41 0.1,3.62 -0.03,0.6 -0.25,1.29 -0.23,1.85 0.01,0.2 0.01,0.31 0.11,0.48 0.22,0.36 0.31,0.63 0.35,1.06 0.14,1.54 0.28,7.43 -0.35,8.62l-0.05 0.1 -0.08 0.08c-1.1,1.06 -2.33,0.94 -3.73,0.82 -1.48,-0.13 -2.37,0.8 -3.78,-0.5l-0.56 -0.52 1.08 -0.98c-0.08,-0.9 -0.24,-1.78 -0.38,-2.67 -0.26,-1.73 -0.32,-3.19 -0.02,-4.93 0.07,-0.43 0.27,-1.26 0.25,-1.67 -0.01,-0.14 -0.01,-0.28 -0.08,-0.4 -0.28,-0.43 -0.3,-0.88 -0.29,-1.38 0.01,-1.92 0.11,-1.4 -0.76,-2.95l-0.37 -0.67 0.7 -0.31c0.43,-0.19 0.69,-0.51 1.09,-0.72 0.12,-0.06 0.24,-0.11 0.35,-0.15z"/>
  <path class="fil1" d="M84.33 17.22c0.89,0.72 0.75,0.12 1.12,1.46 0.82,2.98 0.16,3.89 0.59,4.66 0.14,0.25 0.35,0.29 0.61,0.78 0.25,0.46 0.16,0.55 0.44,0.98 1.1,0.02 2.21,0 3.32,0.01 1.22,0.01 1.87,0.29 2.98,0.34 0.77,-1.65 0.72,0.43 0.77,-3.53 0.01,-1.22 -0.07,-3.38 0.14,-4.48l0.79 -0.06 -0.26 1.32c0.57,0.18 0.91,0.2 0.97,0.94 0.3,3.66 -0.27,0.93 0.16,4.37 0.03,0.21 0.02,0.26 0.08,0.47 0.29,1.02 2.67,0.87 3.47,0.74 1.63,-0.26 1.91,0.69 3.57,-0.22 0.06,-0.72 -0.22,-1.01 -0.13,-1.68 0.06,-0.41 0.39,-0.96 0.55,-1.41 0.45,-1.28 0.08,-2.57 0.4,-3.41 0.43,-1.12 0.87,-1.26 0.93,-2.89 0.08,-1.97 -0.42,-1.84 0.88,-2.96 -0.08,-0.82 -0.49,-0.81 -0.12,-1.55 0.39,-0.77 0.79,-0.58 0.64,-1.51 -0.38,-2.31 0.47,-1.78 0.65,-2.95l0 -0.23c-0.06,-0.93 -2.17,-0.47 -2.99,-0.34 -1.71,0.27 -1.83,-0.05 -3.37,-0.02 -1.53,2.43 -0.15,2.08 -0.33,4.7 -0.12,1.78 -0.73,3.17 -1.16,4.62 -1.77,-0.8 -0.38,-3.11 -0.84,-4.74 -0.23,-0.82 -0.73,-1.04 -0.86,-1.98 -0.33,-2.53 1.16,-2.98 -2.57,-2.82 -0.8,0.03 -1.62,-0.04 -2.41,0.04 -0.23,1.58 -0.63,5.96 -1.25,7.16 -0.78,1.51 0.15,0.45 0.01,2.14 -0.71,-0.06 -1,-0.29 -1.45,-0.55 -0.02,-0.89 0.24,-0.95 0.52,-1.61l-1.3 -0.49c0.36,-1.19 1.83,-1.51 0.14,-3 -0.08,-0.91 0.29,-2.4 -0.24,-3.07l-0.35 -0.18c-0.04,-0.01 -0.09,-0.03 -0.14,-0.04 -0.13,-0.03 -0.61,-0.07 -0.74,-0.08 -0.57,-0.04 -1.12,-0.05 -1.68,-0.06 -1.15,-0.03 -2.19,-0.25 -3.32,-0.22 -1.29,2.6 0.45,3.26 0.87,5.39 0.13,0.66 0.29,2.8 0.45,3.21 0.52,1.33 1.25,0.54 0.45,2.72z"/>
  <path class="fil1" d="M115.52 9.33l2.06 0.06 0.38 7.11c0.18,0.84 0.52,0.3 0.24,1.44 -1.09,4.47 -0.44,2.41 0.1,4.34l-0.51 0.71 -1.99 -0.13 -0.36 -5.4c-0.1,-1.27 0.19,-0.08 0.26,-1.28 0.08,-1.49 -0.09,-1.99 0.14,-3.56 0.08,-0.57 -0.37,-2.11 -0.33,-3.3zm-6.6 5.63c0.41,0.9 0.57,0.06 0.58,1.91 0,0.95 0.05,1.66 -0.04,2.62 -0.09,1 -0.12,1.55 0.15,2.46 0.36,1.21 -0.06,1.6 0.18,2.39 0.71,2.33 11.6,2.09 13.12,1.13 2.15,-1.36 2.04,-5.99 1.6,-8.33 -1.2,-6.42 -0.78,-3.6 -0.22,-5.27 0.15,-0.45 -0.18,-0.65 -0.25,-0.98 -0.1,-0.5 0.52,-1.44 0.67,-2.03 -0.89,-0.7 -1.02,-1.36 -1.66,-1.76 -2.34,-1.46 -4.06,-0.57 -5.94,-0.61 -1.49,-0.03 -5.22,0.06 -6.38,0.71 -0.65,0.37 -1.73,4.46 -1.56,5.28 0.13,0.63 0.89,0.82 -0.24,2.49z"/>
  <path class="fil1" d="M153.12 10.8c-0.85,0.24 -0.71,0.15 -1.1,-0.56 -0.25,-0.45 -0.53,-0.72 -0.81,-1.14 -1.07,-1.62 0.38,-1.15 -0.2,-2.94l-5.84 -0.21c0.11,0.95 1.38,2.62 1.41,4.47 0.01,1.15 -0.35,0.79 0.15,1.59 0.6,0.96 0.16,0.93 0.46,1.63 0.24,0.56 0.39,0.31 0.82,0.79 0.13,1.47 -0.73,1.48 -1.12,2.23 -0.65,1.25 0.54,0.88 -0.94,2.31l0.19 2.49 -1.08 0.46c-0.07,0.8 0.19,1.02 -0.14,1.63 -0.46,0.83 -0.55,-0 -0.47,1.58 1.12,-0.01 2.25,-0.01 3.37,0.01 0.82,0.02 2.33,0.24 2.89,0.21 0.28,-2.63 0.12,-5.15 1.65,-6.81 1.88,2.23 -0.47,2.62 1.95,5.67 -0.17,0.7 -0.13,0.21 -0.42,0.91l1.84 0.04c-0.25,-0.93 3.41,0.16 4.26,-0.42l1.21 -0.03 -0.85 -1.61c-0.1,-0.23 -0.23,-0.46 -0.37,-0.7l-0 -0c-0.43,-0.7 -0.98,-1.43 -1.22,-1.96 -0.41,-0.91 -0.72,-1.77 -1.22,-2.62 -0.61,-1.01 -0.31,-1.78 -0.59,-3.28 -0.25,-1.34 0.1,-1.99 1.03,-2.67 -0,-1.01 -0.37,-0.59 -0.09,-1.47 0.43,-1.32 1.15,-1.8 1.19,-4.76 -1.59,0.04 -4.58,-0.27 -5.43,0.68 -0.48,0.54 -0.61,1.37 -0.76,2.22 -0.37,2.04 -0.67,1.32 0.25,2.29z"/>
  <path class="fil1" d="M128.65 6.61c0.04,0.86 0.57,1.3 1.02,1.74 1.07,-0.02 2.32,0.01 3.07,0.49 -0.79,0.72 -1.63,0.67 -2.73,0.33 -1.41,-0.44 -1.38,0.28 -2.42,0.75 0.85,1.52 0.86,1.07 0.85,3.3 -0.01,1.31 0.32,0.69 0.37,1.73 0.02,0.43 -0.17,1.35 -0.25,1.83 -0.56,3.26 0.24,5.02 0.43,7.77l-0.77 0.7c1.1,1.02 1.87,0.19 3.36,0.31 1.28,0.11 2.3,0.23 3.19,-0.63 0.51,-0.96 0.42,-6.69 0.27,-8.23 -0.08,-0.87 -0.44,-0.63 -0.47,-1.58 -0.02,-0.58 0.2,-1.24 0.23,-1.91 0.08,-1.43 -0.16,-2.95 -0.08,-4.36 1.31,-0.06 2.14,0.76 2.24,1.04 0.01,1.09 -0.3,3.2 0.24,3.98 0.66,0.39 2.5,0.17 3.45,0.19 2.02,0.04 2.08,0.38 2.21,-1.37 0.22,-2.99 0.72,-4.13 -1.47,-5.63 -2.58,-1.76 -4.7,-0.28 -6.32,-0.44 -1.22,-0.11 -2.06,-1.45 -6.43,-0.02z"/>
  <path class="fil0" d="M46.95 25.71c-0.03,-0.05 -0.06,-0.08 -0.1,-0.11 -0.26,-0.18 -1.18,-0.12 -1.49,-0.12 -1.42,0.04 -5.78,0.04 -6.9,-0.57l-2.62 -1.38 -0.03 -0.39c-0.05,-0.7 -0.05,-1.31 0.65,-1.58 0.15,-0.42 0.15,-1.75 0.15,-2.08 -0.01,-1.23 -0.1,-2.46 -0.23,-3.68 -0.3,-2.87 -0.71,-5.6 -0.77,-8.5l-0.01 -0.39 0.32 -0.21c0.41,-0.27 0.68,-0.54 1.04,-0.83 0.57,-0.45 1.29,-0.62 1.98,-0.77 1.8,-0.39 3.59,-0.53 5.41,-0.27 0.4,0.06 1.88,0.4 2.19,0.34 0.19,-0.04 0.41,-0.14 0.59,-0.21 0.34,-0.14 0.66,-0.25 1.02,-0.32 1.42,-0.28 5.07,-0.33 6.32,0.33 1.21,0.64 1.02,2.83 1.09,4 0.12,1.91 0.47,2.04 -0.33,3.97 -0.1,0.23 -0.4,0.88 -0.5,1.21 0.06,0.06 0.13,0.12 0.18,0.17 0.22,0.23 0.41,0.48 0.59,0.75l0.18 0.28 -0.1 0.32c-0.06,0.19 -0.12,0.42 -0.2,0.62l0.8 0.37 -0.8 0.71c-0.01,0.01 -0.03,0.03 -0.05,0.04 0.05,0.22 0.16,0.5 0.21,0.72 0.17,0.77 0.22,1.59 0.22,2.38 0,0.72 -0.02,1.6 -0.23,2.29 -0.1,0.33 -0.2,0.46 -0.33,0.73 0.01,0.16 0.12,0.53 0.16,0.66 0.47,1.55 1.52,2 0.2,3.65 -1.59,1.99 -2.08,0.76 -3.37,1.52 -1.07,0.64 -0.95,0.47 -2.13,0.52l-6.47 0.32c-1.45,0.03 -6,0.49 -6.93,-0.6 -0.57,-0.67 -0.78,-1.6 -0.49,-2.44l0.02 -0.05 0.03 -0.05c0.44,-0.84 1.71,-0.97 2.55,-1.03 1.19,-0.08 2.42,-0.03 3.62,-0 0.76,0.01 3.54,0.1 4.55,-0.37zm-1.1 -4.22c0.25,-0.29 0.41,-0.63 0.46,-1.04 0.05,-0.38 -0.06,-0.67 -0.04,-0.98 0.03,-0.43 0.11,-0.83 0.26,-1.24 0.06,-0.16 0.16,-0.38 0.19,-0.53 0.05,-0.23 -0.32,-0.8 -0.43,-0.98l-0.23 -0.36 0.21 -0.37c0.11,-0.18 0.24,-0.33 0.36,-0.49 -0.22,-0.12 -0.44,-0.24 -0.64,-0.4l-0.3 -0.24 0.04 -0.38c0.02,-0.19 0.06,-0.35 0.11,-0.48l-0.27 0.25c-0.13,0.12 -0.83,0.77 -0.81,0.97 0.01,0.14 0.36,0.68 0.44,0.82 0.44,0.79 0.29,2.24 0.26,3.13 -0.02,0.47 -0.14,1.91 0.39,2.31zm0.02 -7.53c0.12,-0.32 0.3,-0.5 0.44,-0.74l-0.69 -0.64 0.63 -3.01 0 -0.02c0.01,-0.05 0.04,-0.13 0.06,-0.21 -0.24,-0.09 -0.7,-0.19 -1.11,-0.27 -0.13,0.5 -0.26,0.61 -0.55,0.96 0.01,0.17 0.12,0.52 0.16,0.64 0.31,0.96 0.79,1.93 0.99,2.91l0.07 0.37zm21.67 5.64c-0.01,0.75 0.09,1.53 0.15,2.28 0.09,1.05 0.11,2.07 -0.13,3.1l-0.07 0.31 -0.28 0.15c-1.72,0.92 -5.72,0.8 -7.61,0.36l-0.47 -0.11 -0.07 -0.48c-0.11,-0.78 -0.29,-1.6 -0.44,-2.38 -0.1,-0.5 -0.52,-2.42 -0.44,-2.85l0.1 -0.56 1 -0.02c-0.33,-4.63 -0.8,-9.26 -0.59,-13.91l0.03 -0.67 0.67 0c1.81,0 3.57,0.24 5.4,0.11 0.92,-0.06 1.99,-0.27 2.83,0.21 0.82,0.47 0.52,0.54 1.52,0.3 0.39,-0.1 0.78,-0.21 1.15,-0.36 0.26,-0.1 0.52,-0.22 0.79,-0.3 0.87,-0.25 1.97,0.01 2.83,0.2 1.89,0.41 2.51,0.56 4.18,1.55l0.35 0.21 -0.01 0.41c-0.02,0.81 -0.03,1.62 -0.02,2.43 0,0.77 -0.01,1.7 0.1,2.46 0.32,2.32 0.29,1.97 -0.32,3.8 0.6,0.59 0.95,0.9 0.93,1.92 -0.02,0.81 -0.43,1.51 -0.45,2.28 -0.01,0.42 0.02,0.85 0.07,1.27 0.15,1.44 0.34,2.6 0.05,4.05l-0.11 0.56 -0.57 0c-1.51,0.01 -3.01,-0.15 -4.52,-0.17 -1.81,-0.03 -3.07,0.84 -4.12,-1.22l-0.09 -0.18 0.02 -0.2c0.03,-0.37 0.1,-0.72 0.31,-0.98 -0.04,-0.14 -0.1,-0.3 -0.14,-0.4 -0.32,-0.94 -0.33,-1.41 0.01,-2.35 0.03,-0.09 0.09,-0.24 0.13,-0.37 -0.19,-0.3 -0.21,-0.63 -0.2,-1.01 0.02,-0.66 0.16,-1.26 0.11,-1.93 -0.13,-1.88 -0.79,-4.39 -0.43,-6.19 0.09,-0.44 0.21,-0.68 0.4,-1.07 0.02,-0.04 0.03,-0.07 0.05,-0.11 -0.39,-0.5 -0.76,-0.93 -1.49,-0.84 -0.18,0.02 -0.44,0.07 -0.55,0.22 -0.12,0.16 -0.24,0.62 -0.33,0.98 0.21,0.27 0.39,0.56 0.5,0.89 0.15,0.42 0.18,0.87 0.2,1.31 0.04,0.71 0.07,1.4 0.12,2.11 0.09,1.07 0,1.55 -0.11,2.57 -0.01,0.1 -0.04,0.36 -0.02,0.5 0.19,0.13 0.42,0.23 0.64,0.4l0.75 0.61 -0.81 0.52c-0.33,0.21 -0.66,0.41 -0.99,0.61zm-56.72 -2.18c-1.32,-0.37 -2.72,-0.34 -4.04,-0.84 -0.62,-0.24 -1.22,-0.53 -1.85,-0.74 -0.66,-0.23 -1.28,-0.31 -1.93,-0.61 -1.64,-0.76 -2.89,-1.02 -2.91,-3.23 -0.01,-0.86 0.18,-1.13 0.5,-1.85 0.03,-0.07 0.06,-0.15 0.07,-0.23 0.01,-0.06 0.03,-0.15 -0.01,-0.21 -0.33,-0.5 -0.5,-0.6 -0.61,-1.27l-0.04 -0.25 0.13 -0.22c0.2,-0.34 0.39,-0.59 0.71,-0.82 0.12,-0.08 0.17,-0.12 0.27,-0.24 0.16,-0.19 0.09,-0.47 0.16,-0.72 0.14,-0.56 0.58,-0.85 1.09,-1.03 0.81,-0.3 1.9,-0.44 2.76,-0.55 2.44,-0.32 4.81,0.03 7.24,-0.06 1.56,-0.06 2.09,-0.34 3.66,0.28 0.69,0.27 1.39,0.51 2.07,0.78 0.4,0.16 0.81,0.34 1.08,0.68 0.23,0.29 0.32,0.64 0.43,0.98 0.16,0.53 0.32,1.03 0.53,1.54 0.23,0.57 0.59,1.36 0.4,1.99 -0.05,0.18 -0.14,0.32 -0.21,0.49 -0.1,0.22 -0.15,0.47 -0.19,0.71l-0.1 0.6 -0.61 -0.02c-1.91,-0.05 -3.91,-0.17 -5.8,0.06 -1.06,0.13 -2.18,-0.58 -2.51,-1.6 -0.3,-0.91 0.23,-1.66 0.16,-2.05 -0.28,-0.33 -1.19,-0.28 -1.53,-0.22 -0.36,0.06 -0.9,0.21 -1.24,0.45 0.03,0.52 0.92,2.08 1.06,2.53l0.21 0.63c1.86,0.01 2.77,0.39 4.64,0.91 0.73,0.21 1.47,0.41 2.2,0.63 0.56,0.17 1.95,0.53 2.41,0.83 0.9,0.58 1.55,3.65 1.76,4.73 0.25,1.28 0.25,1.78 -0.6,2.79 -0.06,0.07 -0.19,0.23 -0.26,0.35 0.14,0.23 0.31,0.4 0.45,0.72l0.29 0.72 -0.74 0.22c-2.88,0.84 -6.08,1.04 -9.06,1.37 -0.94,0.1 -4.54,0.18 -5.33,-0.05 -0.73,-0.21 -0.97,-0.53 -1.78,-0.61 -0.78,-0.08 -1.55,-0.07 -2.33,-0.16l-0.4 -0.05 -0.16 -0.38c-0.45,-1.09 -1.13,-2.46 -0.49,-3.61 0.14,-0.24 0.4,-0.7 0.34,-1 -0.05,-0.25 -0.13,-0.46 -0.17,-0.72 -0.07,-0.48 -0.02,-0.97 0.07,-1.45l0.09 -0.46 0.46 -0.09c0.96,-0.19 2.26,-0.13 3.24,-0.08 1.02,0.05 2.05,0.13 3.06,0.24 0.91,0.1 1.94,0.39 2.3,1.33 0.37,0.97 -0.18,1.94 -0.25,2.8 0.87,0.07 1.65,0.01 1.99,-0.99 0.3,-0.86 0.02,-2.26 -0.62,-2.96zm13.23 -5.67c-0.24,-0.26 -0.31,-0.54 -0.35,-0.91l-0.05 -0.38 0.79 -0.64c-0.02,-1.03 -0.04,-2.16 0.09,-3.16 0.08,-0.64 0.25,-1.35 0.86,-1.7 0.5,-0.28 1.1,-0.2 1.65,-0.19 1.1,0.03 2.18,-0.09 3.27,-0.13 0.88,-0.03 2.03,-0.03 2.68,0.66 0.11,0.12 0.2,0.25 0.28,0.39 0.31,0.62 0.25,1.67 0.19,2.35 -0.04,0.47 -0.11,0.94 -0.46,1.28 0.71,0.88 0.41,1.76 0.44,2.99 0.01,0.73 0.06,1.46 0.18,2.18 0.08,0.48 0.2,0.96 0.29,1.43 0.38,1.92 -0.04,3.95 -0.46,5.84 0.44,0.58 0.71,0.75 0.55,1.79 -0.1,0.63 -0.37,1.19 -0.92,1.55 -0.75,0.48 -1.68,0.37 -2.52,0.48 -0.71,0.09 -1.53,0.21 -2.13,-0.27 -0.01,-0.01 -0.01,-0.01 -0.02,-0.02 -0.27,-0.08 -1.33,0.08 -1.58,0.12 -0.78,0.12 -1.15,-0.01 -1.88,-0.1l-0.46 -0.06 -0.12 -0.45c-0.41,-1.51 -0.95,-3.77 -0.54,-5.33 0.12,-0.45 0.31,-0.84 0.6,-1.21 0.15,-0.19 0.36,-0.39 0.49,-0.59 0.06,-0.09 0.09,-0.16 0.1,-0.27 0.01,-0.08 0.01,-0.14 -0.03,-0.21 -0.2,-0.3 -0.71,-0.57 -1.01,-1l-0.11 -0.15 -0.02 -0.18c-0.09,-0.99 0,-1.9 0.11,-2.88 0.03,-0.24 0.12,-0.94 0.09,-1.26zm1.01 -7.49c-0.56,-0.77 -1.09,-2.57 -1.15,-3.52l-0.04 -0.74 8.75 0.02 0.2 0.34c0.67,1.12 0.84,2.02 0.53,3.3l-0.12 0.51 -7.95 0.4 -0.22 -0.31z"/>
  <path class="fil0" d="M48.7 27.45c-0.03,-0.04 -0.06,-0.08 -0.1,-0.11 -0.26,-0.18 -1.18,-0.12 -1.49,-0.12 -1.42,0.04 -5.78,0.04 -6.9,-0.57l-2.62 -1.38 -0.03 -0.39c-0.05,-0.7 -0.05,-1.31 0.65,-1.58 0.15,-0.42 0.15,-1.75 0.15,-2.08 -0.01,-1.23 -0.1,-2.46 -0.23,-3.68 -0.3,-2.87 -0.71,-5.6 -0.77,-8.5l-0.01 -0.39 0.32 -0.21c0.41,-0.27 0.68,-0.54 1.04,-0.83 0.57,-0.45 1.29,-0.62 1.98,-0.77 1.8,-0.39 3.59,-0.53 5.41,-0.27 0.4,0.06 1.88,0.4 2.19,0.34 0.19,-0.04 0.41,-0.14 0.59,-0.21 0.34,-0.14 0.66,-0.25 1.02,-0.32 1.42,-0.28 5.07,-0.33 6.32,0.33 1.21,0.64 1.02,2.83 1.09,4 0.12,1.91 0.47,2.04 -0.33,3.97 -0.1,0.23 -0.4,0.88 -0.5,1.21 0.06,0.06 0.13,0.12 0.18,0.17 0.22,0.23 0.41,0.48 0.59,0.75l0.19 0.28 -0.1 0.32c-0.06,0.19 -0.12,0.42 -0.2,0.62l0.8 0.37 -0.8 0.71c-0.01,0.01 -0.03,0.03 -0.05,0.04 0.05,0.22 0.16,0.5 0.21,0.72 0.17,0.77 0.22,1.59 0.22,2.38 0,0.72 -0.02,1.6 -0.23,2.29 -0.1,0.33 -0.2,0.46 -0.33,0.73 0.01,0.16 0.12,0.53 0.16,0.66 0.47,1.55 1.52,2 0.2,3.65 -1.59,1.99 -2.08,0.76 -3.37,1.52 -1.07,0.64 -0.95,0.47 -2.13,0.52l-6.47 0.32c-1.45,0.03 -6,0.49 -6.93,-0.6 -0.57,-0.67 -0.78,-1.6 -0.49,-2.44l0.02 -0.05 0.03 -0.05c0.44,-0.84 1.71,-0.97 2.55,-1.03 1.19,-0.08 2.42,-0.03 3.62,-0 0.76,0.01 3.54,0.1 4.55,-0.37zm-1.1 -4.22c0.25,-0.29 0.41,-0.63 0.46,-1.04 0.05,-0.38 -0.06,-0.67 -0.04,-0.98 0.03,-0.43 0.11,-0.83 0.26,-1.24 0.06,-0.16 0.16,-0.38 0.2,-0.53 0.05,-0.23 -0.32,-0.8 -0.43,-0.98l-0.23 -0.36 0.21 -0.37c0.11,-0.18 0.24,-0.33 0.36,-0.49 -0.22,-0.12 -0.44,-0.24 -0.64,-0.4l-0.3 -0.24 0.04 -0.38c0.02,-0.19 0.06,-0.35 0.11,-0.48l-0.27 0.25c-0.13,0.12 -0.83,0.77 -0.81,0.97 0.01,0.14 0.36,0.68 0.44,0.82 0.44,0.79 0.29,2.24 0.26,3.13 -0.02,0.47 -0.14,1.91 0.39,2.31zm0.02 -7.53c0.12,-0.32 0.3,-0.5 0.44,-0.74l-0.69 -0.64 0.63 -3.01 0 -0.02c0.01,-0.05 0.04,-0.14 0.06,-0.21 -0.24,-0.09 -0.7,-0.19 -1.11,-0.27 -0.13,0.5 -0.26,0.61 -0.55,0.96 0.01,0.17 0.12,0.52 0.16,0.64 0.31,0.96 0.79,1.93 0.99,2.91l0.07 0.37zm21.67 5.64c-0.01,0.75 0.09,1.53 0.15,2.28 0.09,1.05 0.11,2.07 -0.13,3.1l-0.07 0.31 -0.28 0.15c-1.72,0.92 -5.72,0.8 -7.61,0.36l-0.47 -0.11 -0.07 -0.48c-0.11,-0.78 -0.29,-1.6 -0.44,-2.38 -0.09,-0.5 -0.52,-2.42 -0.44,-2.85l0.1 -0.56 1 -0.02c-0.33,-4.63 -0.8,-9.26 -0.59,-13.91l0.03 -0.67 0.67 0c1.81,0 3.57,0.24 5.4,0.11 0.92,-0.06 1.99,-0.27 2.83,0.21 0.82,0.47 0.52,0.54 1.52,0.3 0.39,-0.1 0.78,-0.21 1.15,-0.36 0.26,-0.1 0.52,-0.22 0.79,-0.3 0.87,-0.25 1.97,0.01 2.83,0.2 1.89,0.41 2.51,0.56 4.18,1.55l0.35 0.21 -0.01 0.41c-0.02,0.81 -0.03,1.62 -0.02,2.43 0,0.77 -0.01,1.7 0.1,2.46 0.32,2.32 0.29,1.97 -0.32,3.8 0.6,0.59 0.95,0.9 0.93,1.92 -0.02,0.81 -0.43,1.51 -0.45,2.28 -0.01,0.42 0.02,0.84 0.07,1.27 0.15,1.44 0.34,2.6 0.05,4.05l-0.11 0.56 -0.57 0c-1.51,0.01 -3.01,-0.15 -4.52,-0.17 -1.8,-0.03 -3.07,0.84 -4.12,-1.22l-0.09 -0.18 0.02 -0.2c0.03,-0.37 0.1,-0.72 0.31,-0.98 -0.04,-0.14 -0.1,-0.3 -0.14,-0.4 -0.32,-0.94 -0.33,-1.41 0.01,-2.35 0.03,-0.09 0.09,-0.24 0.13,-0.37 -0.19,-0.3 -0.21,-0.63 -0.2,-1.01 0.02,-0.66 0.16,-1.26 0.11,-1.93 -0.13,-1.88 -0.79,-4.39 -0.43,-6.19 0.09,-0.44 0.21,-0.68 0.4,-1.07 0.02,-0.04 0.03,-0.07 0.05,-0.11 -0.39,-0.5 -0.76,-0.93 -1.49,-0.84 -0.18,0.02 -0.43,0.07 -0.55,0.22 -0.12,0.16 -0.24,0.62 -0.33,0.98 0.21,0.27 0.39,0.56 0.5,0.89 0.15,0.42 0.18,0.87 0.2,1.31 0.04,0.71 0.07,1.4 0.12,2.11 0.09,1.07 -0,1.55 -0.11,2.57 -0.01,0.1 -0.04,0.36 -0.02,0.5 0.19,0.13 0.42,0.23 0.64,0.4l0.75 0.61 -0.81 0.52c-0.33,0.21 -0.66,0.41 -0.99,0.61zm-56.72 -2.18c-1.32,-0.37 -2.72,-0.34 -4.04,-0.84 -0.62,-0.24 -1.22,-0.53 -1.85,-0.74 -0.66,-0.23 -1.28,-0.31 -1.93,-0.61 -1.64,-0.76 -2.89,-1.02 -2.91,-3.23 -0.01,-0.86 0.18,-1.13 0.5,-1.85 0.03,-0.07 0.06,-0.15 0.07,-0.23 0.01,-0.06 0.03,-0.15 -0.01,-0.21 -0.33,-0.5 -0.5,-0.6 -0.61,-1.27l-0.04 -0.25 0.13 -0.22c0.2,-0.34 0.39,-0.59 0.71,-0.82 0.12,-0.08 0.17,-0.13 0.27,-0.24 0.16,-0.19 0.09,-0.47 0.16,-0.72 0.14,-0.56 0.58,-0.85 1.09,-1.03 0.81,-0.3 1.9,-0.44 2.76,-0.55 2.44,-0.32 4.81,0.03 7.24,-0.06 1.56,-0.06 2.09,-0.34 3.66,0.28 0.69,0.27 1.39,0.51 2.07,0.78 0.4,0.16 0.81,0.34 1.08,0.69 0.23,0.29 0.32,0.64 0.43,0.98 0.16,0.53 0.33,1.03 0.53,1.54 0.23,0.57 0.59,1.36 0.4,1.99 -0.05,0.18 -0.14,0.32 -0.21,0.49 -0.1,0.22 -0.15,0.47 -0.19,0.71l-0.1 0.6 -0.61 -0.02c-1.91,-0.05 -3.91,-0.17 -5.8,0.06 -1.06,0.13 -2.18,-0.58 -2.51,-1.6 -0.3,-0.91 0.23,-1.66 0.16,-2.06 -0.28,-0.33 -1.19,-0.28 -1.53,-0.22 -0.36,0.06 -0.9,0.21 -1.24,0.45 0.03,0.52 0.92,2.08 1.06,2.53l0.21 0.63c1.86,0.01 2.77,0.39 4.64,0.91 0.73,0.21 1.47,0.41 2.2,0.63 0.56,0.17 1.95,0.53 2.41,0.83 0.9,0.58 1.55,3.65 1.76,4.73 0.25,1.28 0.25,1.78 -0.6,2.79 -0.06,0.07 -0.19,0.23 -0.26,0.35 0.14,0.23 0.31,0.4 0.45,0.72l0.29 0.72 -0.74 0.22c-2.88,0.84 -6.08,1.04 -9.06,1.37 -0.94,0.1 -4.54,0.18 -5.33,-0.05 -0.73,-0.22 -0.97,-0.53 -1.78,-0.61 -0.78,-0.08 -1.55,-0.07 -2.33,-0.16l-0.4 -0.05 -0.16 -0.38c-0.45,-1.09 -1.13,-2.46 -0.49,-3.61 0.14,-0.24 0.4,-0.7 0.34,-1 -0.05,-0.25 -0.13,-0.46 -0.17,-0.72 -0.07,-0.48 -0.02,-0.97 0.07,-1.45l0.09 -0.46 0.46 -0.09c0.96,-0.19 2.26,-0.13 3.24,-0.08 1.02,0.05 2.05,0.13 3.06,0.24 0.91,0.1 1.94,0.39 2.3,1.33 0.37,0.97 -0.18,1.94 -0.25,2.8 0.87,0.07 1.65,0.01 1.99,-0.99 0.3,-0.86 0.02,-2.26 -0.62,-2.96zm13.23 -5.67c-0.24,-0.26 -0.31,-0.54 -0.35,-0.91l-0.05 -0.38 0.79 -0.64c-0.02,-1.03 -0.04,-2.16 0.09,-3.16 0.08,-0.64 0.25,-1.35 0.86,-1.7 0.5,-0.28 1.11,-0.2 1.65,-0.19 1.1,0.03 2.18,-0.09 3.27,-0.13 0.88,-0.03 2.03,-0.03 2.68,0.66 0.11,0.12 0.2,0.25 0.28,0.39 0.31,0.62 0.25,1.67 0.19,2.35 -0.04,0.47 -0.11,0.94 -0.46,1.28 0.71,0.88 0.41,1.76 0.44,2.99 0.01,0.73 0.06,1.46 0.18,2.18 0.08,0.48 0.2,0.95 0.29,1.43 0.37,1.92 -0.04,3.95 -0.46,5.84 0.44,0.58 0.71,0.75 0.55,1.79 -0.1,0.63 -0.37,1.19 -0.92,1.55 -0.75,0.48 -1.68,0.37 -2.52,0.48 -0.71,0.09 -1.53,0.21 -2.13,-0.27 -0.01,-0.01 -0.01,-0.01 -0.02,-0.02 -0.27,-0.08 -1.33,0.08 -1.58,0.12 -0.78,0.12 -1.15,-0.01 -1.88,-0.1l-0.46 -0.06 -0.12 -0.45c-0.41,-1.51 -0.95,-3.77 -0.54,-5.33 0.12,-0.45 0.31,-0.84 0.6,-1.21 0.15,-0.19 0.36,-0.39 0.49,-0.59 0.06,-0.09 0.09,-0.16 0.1,-0.27 0.01,-0.08 0.01,-0.14 -0.03,-0.21 -0.2,-0.3 -0.71,-0.57 -1.01,-1l-0.11 -0.15 -0.02 -0.18c-0.09,-0.99 0,-1.9 0.11,-2.88 0.03,-0.24 0.12,-0.94 0.09,-1.26zm1.01 -7.49c-0.56,-0.77 -1.09,-2.57 -1.15,-3.52l-0.04 -0.74 8.75 0.02 0.2 0.34c0.67,1.12 0.84,2.02 0.53,3.3l-0.12 0.51 -7.95 0.4 -0.22 -0.3z"/>
  <path class="fil1" d="M45.12 13.73c-0.17,-0.85 -0.66,-1.89 -0.97,-2.84 -0.53,-1.62 0.13,-0.96 0.39,-2.05l0.1 -0.58c2.6,0.43 2.52,0.6 2.3,1.46l-0.55 2.61 0.75 0.7c-0.21,0.79 -0.6,0.77 -0.69,1.53 0.42,0.34 0.81,0.44 1.17,0.74 -0.26,0.56 -0.48,0.64 -0.72,1.05 1.09,1.73 0.22,1.41 0.08,3.18 -0.01,0.15 0.41,1.62 -0.94,2.76 -2.22,-0.23 -0.72,-4.62 -1.44,-5.9 -0.57,-1.02 -1,-1.28 0.52,-2.65zm-8.81 -6.44c0.11,4.92 0.98,8.13 1,12.2 0.02,4.33 -0.95,1.61 -0.8,3.61l2.28 1.2c0.94,0.5 5.29,0.52 6.55,0.48 1.45,-0.05 2.14,-0.05 2.44,1.16 -1.47,1.8 -10.09,-0.11 -10.94,1.49 -0.19,0.56 -0.08,1.23 0.36,1.76 0.62,0.73 4.87,0.38 6.38,0.35l6.45 -0.32c1.25,-0.07 0.89,0.12 1.81,-0.43 1.5,-0.89 1.81,0.35 3.18,-1.36 1.03,-1.28 0.16,-1.43 -0.32,-3.01 -0.59,-1.94 0.37,-0.26 0.37,-3.89 -0,-3.29 -0.9,-2.98 -0.14,-3.66l-0.76 -0.35c0.72,-0.6 0.46,-0.11 0.76,-1.05 -0.99,-1.51 -1.29,-0.47 -0.33,-2.79 0.75,-1.79 0.4,-1.71 0.28,-3.66 -0.06,-0.94 0.08,-3.01 -0.72,-3.43 -0.98,-0.52 -4.38,-0.55 -5.86,-0.26 -0.7,0.14 -1.15,0.44 -1.61,0.53 -1.03,0.2 -2.9,-1.08 -7.59,-0.07 -1.94,0.42 -1.51,0.66 -2.79,1.49z"/>
  <path class="fil1" d="M59.4 5.53c-0.22,4.88 0.32,9.87 0.64,14.55l-1.16 0.03c-0.05,0.27 0.76,4.11 0.88,5.02 1.85,0.42 5.65,0.5 7.13,-0.3 0.45,-1.95 -0.15,-3.88 -0.03,-5.63 0.52,-0.31 0.8,-0.47 1.3,-0.79 -0.65,-0.53 -1.01,-0.23 -0.87,-1.51 0.12,-1.12 0.21,-1.16 0.11,-2.44 -0.24,-2.93 0.06,-3.04 -0.9,-4.21 0.34,-1.11 0.27,-1.88 1.56,-2.05 1.19,-0.15 1.72,0.59 2.32,1.35 -0.05,0.63 -0.35,0.73 -0.51,1.49 -0.31,1.57 0.33,4.26 0.44,6.01 0.05,0.82 -0.09,1.29 -0.11,2 -0.04,1.18 0.53,0.21 0.03,1.6 -0.28,0.78 -0.27,1.08 -0,1.89 0.56,1.64 -0.03,0.35 -0.14,1.66 0.81,1.59 1.52,0.81 3.51,0.84 1.53,0.03 2.99,0.18 4.5,0.17 0.4,-1.99 -0.17,-3.49 -0.13,-5.2 0.02,-0.88 0.44,-1.56 0.45,-2.28 0.02,-1.07 -0.66,-1.23 -1.02,-1.74 0.72,-2.21 0.76,-1.4 0.42,-3.87 -0.14,-1 -0.11,-3.88 -0.08,-5 -1.62,-0.96 -1.88,-1.01 -3.97,-1.47 -2.91,-0.64 -2.12,-0.11 -4.46,0.46 -1.35,0.33 -1.22,0.1 -2.04,-0.37 -0.63,-0.36 -1.63,-0.17 -2.43,-0.12 -2.03,0.14 -3.53,-0.11 -5.45,-0.11z"/>
  <path class="fil1" d="M0.73 8.32c0.15,0.96 0.75,0.82 0.62,1.69 -0.09,0.63 -0.57,0.87 -0.56,1.97 0.02,1.86 1.19,1.99 2.51,2.6 0.66,0.31 1.13,0.33 1.86,0.58 0.74,0.25 1.2,0.49 1.88,0.75 1.27,0.49 2.87,0.48 4.15,0.87 0.71,0.66 1.41,2.38 0.92,3.81 -0.5,1.45 -1.53,1.59 -3.31,1.4 -0.34,-1.64 1.69,-3.72 -1.46,-4.08 -1.36,-0.15 -4.74,-0.43 -6.09,-0.17 -0.4,2.04 0.7,1.58 -0.31,3.37 -0.48,0.86 0.17,2.14 0.52,3 0.77,0.1 1.55,0.09 2.31,0.16 1.07,0.11 1.12,0.41 1.91,0.64 0.54,0.16 4.34,0.11 5.06,0.03 2.91,-0.32 6.21,-0.55 8.94,-1.35 -0.33,-0.8 -0.95,-0.74 -0.07,-1.78 0.64,-0.75 0.68,-1 0.45,-2.21 -0.17,-0.89 -0.85,-3.89 -1.45,-4.27 -0.38,-0.25 -3.75,-1.19 -4.42,-1.38 -1.91,-0.53 -2.64,-0.95 -4.96,-0.88l-0.36 -1.12c-0.23,-0.71 -1.39,-2.42 -1.02,-3.13 0.85,-0.83 3.4,-1.24 4.04,-0.14 0.28,0.75 -0.41,1.31 -0.13,2.14 0.27,0.82 1.16,1.19 1.76,1.12 1.87,-0.23 3.97,-0.12 5.91,-0.07 0.27,-1.68 0.85,-0.83 0.05,-2.82 -1.24,-3.07 0.1,-2.11 -3.72,-3.61 -1.44,-0.57 -1.83,-0.29 -3.38,-0.23 -2.4,0.09 -4.7,-0.27 -7.17,0.06 -4.57,0.6 -2.73,1.07 -3.56,2.06 -0.39,0.47 -0.49,0.25 -0.91,0.96z"/>
  <path class="fil1" d="M25.14 10.14l-0.75 0.61c0.14,1.11 0.54,-0.17 0.26,2.33 -0.11,0.97 -0.2,1.76 -0.11,2.74 0.45,0.65 1.27,0.8 1.16,1.68 -0.18,1.48 -2.42,0.75 -0.67,7.12 0.71,0.09 0.97,0.22 1.69,0.1 3.32,-0.51 1.07,0.5 3.75,0.16 1.27,-0.16 2.58,0.13 2.83,-1.44 0.14,-0.89 -0.19,-0.91 -0.61,-1.53 1.43,-6.36 0.13,-5.07 0.04,-9.6 -0.03,-1.64 0.33,-2.13 -0.65,-2.93 0.33,-0.81 0.57,-0.25 0.68,-1.42 0.05,-0.54 0.11,-1.52 -0.12,-1.98 -0.59,-1.17 -3.08,-0.46 -5.62,-0.54 -1.64,-0.05 -1.96,-0.38 -1.87,4.68z"/>
  <path class="fil1" d="M25.63 3.85l7.05 -0.35c0.29,-1.21 0.06,-1.92 -0.45,-2.78l-7.61 -0.02c0.05,0.87 0.57,2.54 1.02,3.15z"/>
 </g>
</svg>
