<?xml version="1.0" encoding="UTF-8"?>
<!DOCTYPE svg PUBLIC "-//W3C//DTD SVG 1.1//EN" "http://www.w3.org/Graphics/SVG/1.1/DTD/svg11.dtd">
<!-- Creator: CorelDRAW 2021 (64-Bit) -->
<svg xmlns="http://www.w3.org/2000/svg" xml:space="preserve" width="72.5357mm" height="14.3076mm" version="1.1" style="shape-rendering:geometricPrecision; text-rendering:geometricPrecision; image-rendering:optimizeQuality; fill-rule:evenodd; clip-rule:evenodd"
viewBox="0 0 8047.73 1587.41"
 xmlns:xlink="http://www.w3.org/1999/xlink"
 xmlns:xodm="http://www.corel.com/coreldraw/odm/2003">
 <defs>
  <style type="text/css">
   <![CDATA[
    .fil0 {fill:#FEFEFE}
    .fil1 {fill:black}
    .fil3 {fill:#FEFEFE}
    .fil2 {fill:red}
   ]]>
  </style>
 </defs>
 <g id="Layer_x0020_1">
  <metadata id="CorelCorpID_0Corel-Layer"/>
  <g id="_2616863579008">
   <circle class="fil0" cx="793.7" cy="793.71" r="793.7"/>
   <path class="fil1" d="M777.01 85.86l41.08 0c47.79,1.41 95.56,7.8 143.16,19.7 22.42,5.61 44.86,10.94 66.33,19.5 10.45,4.16 21.16,7.47 31.64,11.79l86.16 42.03c37.51,22.56 66.56,42.12 101.26,70.37l81.5 79.53c14.59,17.34 29.75,35.07 42.49,53.92 19.07,28.2 37.31,56.54 52.8,87.04 1.61,3.17 2.36,3.84 3.91,6.69 1.5,2.81 1.81,4.48 3.17,7.42 1.24,2.7 2.2,4.39 3.53,7.06 35.68,71.21 56.58,155.64 64.82,235.02 3.46,33.42 4.18,105.38 -0.44,138.01 -0.97,6.85 -1.19,12.39 -2.11,19.07 -11.18,80.86 -33.27,157.82 -70.01,229.82 -22.42,43.91 -50,84.49 -79.82,123.6 -1.79,2.35 -2.9,3.23 -4.86,5.74 -3.42,4.34 -6.16,7.37 -9.66,11.53 -16.38,19.5 -33.68,37.47 -51.96,55.05l-46.17 39.63c-67.28,54.48 -155.53,101.11 -238.27,124.07 -11.12,3.08 -21.62,6.49 -33.26,9.12 -88.77,20.03 -176.28,26.06 -267.21,13.17 -67.52,-9.57 -125.76,-27.68 -187.27,-53.24l-14.58 -6.6c-57.3,-27.5 -112,-61.2 -159.37,-103.38l-23.11 -20.33c-6.89,-5.33 -15.43,-15.08 -21.9,-21.54 -29.06,-29.07 -56.18,-61.48 -78.98,-95.83 -14.52,-21.89 -29.66,-44.72 -41.52,-68.67 -2.39,-4.83 -4.96,-8.81 -7.42,-13.76 -45.3,-91.07 -75.22,-191.81 -75.22,-317.83 0,-29.19 2.24,-56.98 5.11,-82.83 13.26,-119.66 54.29,-219.67 119.48,-318.07l28.29 -38.44c16.84,-20.69 53.62,-63.91 73.39,-79.17l22.96 -20.48c3.88,-3.69 7.86,-6.69 12.12,-10.13 4.43,-3.57 7.92,-6.35 12.32,-9.93 8.19,-6.67 16.51,-12.25 24.94,-18.51 2.43,-1.81 4.29,-2.86 6.95,-4.7 2.7,-1.86 3.48,-2.67 6.12,-4.47 21.65,-14.69 44.76,-29.15 68.31,-40.82l37.07 -18.01c36.42,-17.63 81.95,-32.6 121.37,-41.79 50.78,-11.86 101.81,-18.86 152.86,-20.36z"/>
   <g>
    <path class="fil2" d="M444.71 393.02c8.2,8.72 16.55,13.4 2.86,29.35 -11.94,13.91 -41.07,30.72 -51.69,43.61 -8.43,10.24 -0.48,26.02 4.6,35 5.76,10.17 12.19,17.95 16.98,29.67 7.29,17.84 -1.01,22.53 -8.1,33.99 -21.58,34.85 -30.82,71.18 -18.36,113.11 2.83,9.49 9.95,26.76 14.86,32.85 9.71,12.04 42.34,26.51 60.66,34.69 10.4,4.64 21.56,10.22 30.59,16.05 11.52,7.44 3.23,7.44 14.39,9 7.13,1 13.58,2.4 20.17,4.18 45.8,12.42 88.03,36.97 131.46,58.09 10.35,5.03 59.6,17.43 74.11,21.16 25.58,6.59 50.68,12.33 77,17.29 22.59,4.27 19.37,0.48 24.73,10.78 38.54,74.29 56.32,156.97 -17.27,211.72 -6.06,4.52 -22.15,16.32 -31.23,16.44 -11.89,0.14 -77.41,-7.62 -84.17,-11.22 -1.28,-39.16 29.86,-79.96 27.81,-117.67 -1.22,-22.37 -13.29,-37.06 -23.59,-48.88 -9.22,-10.58 -7.81,-8.45 -25.26,-11.28 -53.91,-8.72 -104.38,-15.61 -158.93,-22.6 -32.41,-4.15 -102.55,-11.63 -133.44,-11.34 -14.32,15.52 -12.22,57.73 -7.92,78.78 6.21,30.47 15.08,32.62 -12.55,66.9 -24.72,30.68 -21.4,31.19 -11.84,66.95l18.79 74.18c1.22,1.6 10.31,2.1 12.37,2.33 4.16,0.47 8.42,0.83 12.79,1.33 8.71,1 17.04,1.88 25.58,2.92 50.73,6.18 90.35,7.39 131.87,39.29 6.47,4.96 40.56,5.4 50.91,5.94l107.51 5.9c18.08,0.92 37.23,3.95 54.76,3.4 73.47,-2.32 146.27,-6.06 219.03,-9.24 54.33,-2.36 157.23,-10.36 199.73,-28.62 -10.21,-11.26 -55.73,-29.2 -3.58,-76.54 17.77,-16.13 21.02,-20.13 23.68,-41.2 4.77,-37.91 -3.17,-78.5 -12.37,-114.94 -8.3,-32.86 -14.82,-70.83 -23.59,-106.24 -6.9,-27.86 -2.07,-20.33 -32.6,-32.34 -86.24,-33.95 -196.06,-74.69 -285.68,-103.69 -18.2,-5.89 -32.63,-13.04 -52.17,-12.77 -21.85,0.3 -43.28,-0.67 -64.46,-1.71 2.42,-16.73 5.5,-19.86 0.58,-41.89 -2.71,-12.16 -7.13,-23.91 -11.74,-34.84 -9.41,-22.27 -18.4,-43.34 -26.04,-67.27 -9.9,-31.01 -8.17,-49.63 18.81,-61.81 23.17,-10.46 53.27,-11.78 81.84,-11.51 29.95,0.29 49.88,0.73 72.97,19.37 10.38,8.38 11.13,18.84 6.2,34.48 -7.18,22.8 -9.73,30.54 -18.28,51.68 -2.13,5.26 1.03,13.71 2.81,18.4 4.47,11.78 11.65,20.63 18.57,28.1 9.9,10.7 26,22.64 39.12,30.85 4.12,2.59 10.99,6.07 14.17,8.81l1.66 -2.83c1.86,-4.69 3.01,-16.09 18.93,-15.88 14.31,0.18 42.52,10.24 67.97,10.24 40.2,-0.01 149.49,2.98 180.99,15.04 -0.13,-4.7 -2.52,-7.36 -2.22,-14.65 0.23,-5.67 2.01,-9.9 4.22,-14.82 8.1,-18.03 25.39,-37.06 18.58,-53.98 -11.99,-29.83 -35.29,-114.84 -41.92,-145.64 -3.03,-14.1 0.88,-9.67 -18.53,-19.03 -25.48,-12.29 -138.16,-66.47 -156.23,-69.01 -11.67,-1.63 -23.08,-2.22 -35.6,-2.15 -23.68,0.12 -49.24,1.28 -73.06,2.6 -15.6,0.87 -18.12,-0.13 -32.49,-3.17 -50.51,-10.7 -47.62,-8.32 -100.11,-12.49 -23.04,-1.83 -47.89,-2.8 -71.18,-3.54 -59.68,-1.89 -151.91,-2.41 -209.45,13.41 -16.58,4.56 -44.31,15.83 -49.03,26.89z"/>
    <path class="fil3" d="M906.97 371.92c23.82,-1.32 49.38,-2.47 73.06,-2.6 12.53,-0.07 23.93,0.52 35.6,2.15 18.06,2.54 130.74,56.72 156.23,69.01 19.4,9.35 15.5,4.93 18.53,19.03 6.62,30.8 29.92,115.81 41.92,145.64 6.8,16.92 -10.48,35.95 -18.58,53.98 -2.21,4.93 -3.98,9.15 -4.22,14.82 -0.3,7.29 2.09,9.94 2.22,14.65 -31.5,-12.06 -140.79,-15.06 -180.99,-15.04 -25.45,0 -53.65,-10.06 -67.97,-10.24 -15.92,-0.21 -17.06,11.18 -18.93,15.88l-1.66 2.83c-3.17,-2.74 -10.05,-6.22 -14.17,-8.81 -13.13,-8.21 -29.22,-20.16 -39.12,-30.85 -6.92,-7.48 -14.1,-16.32 -18.57,-28.1 -1.78,-4.68 -4.94,-13.14 -2.81,-18.4 8.55,-21.14 11.11,-28.88 18.28,-51.68 4.93,-15.64 4.18,-26.11 -6.2,-34.48 -23.09,-18.64 -43.03,-19.08 -72.97,-19.37 -28.57,-0.28 -58.67,1.04 -81.84,11.51 -26.97,12.18 -28.7,30.8 -18.81,61.81 7.64,23.93 16.63,45 26.04,67.27 4.6,10.93 9.03,22.68 11.74,34.84 4.93,22.03 1.84,25.16 -0.58,41.89 21.18,1.04 42.62,2.01 64.46,1.71 19.54,-0.27 33.97,6.88 52.17,12.77 89.62,29 199.44,69.74 285.68,103.69 30.52,12.02 25.7,4.48 32.6,32.34 8.76,35.41 15.29,73.38 23.59,106.24 9.2,36.45 17.14,77.03 12.37,114.94 -2.65,21.07 -5.9,25.06 -23.68,41.2 -52.15,47.34 -6.62,65.28 3.58,76.54 -42.5,18.26 -145.4,26.26 -199.73,28.62 -72.76,3.18 -145.56,6.92 -219.03,9.24 -17.53,0.55 -36.68,-2.47 -54.76,-3.4l-107.51 -5.9c-10.35,-0.53 -44.45,-0.98 -50.91,-5.94 -41.53,-31.9 -81.15,-33.11 -131.87,-39.29 -8.54,-1.04 -16.88,-1.92 -25.58,-2.92 -4.37,-0.5 -8.63,-0.87 -12.79,-1.33 -2.06,-0.23 -11.15,-0.73 -12.37,-2.33l-18.79 -74.18c-9.56,-35.76 -12.88,-36.27 11.84,-66.95 27.63,-34.28 18.76,-36.44 12.55,-66.9 -4.29,-21.06 -6.4,-63.26 7.92,-78.78 30.89,-0.29 101.03,7.19 133.44,11.34 54.55,6.99 105.02,13.88 158.93,22.6 17.45,2.83 16.04,0.7 25.26,11.28 10.3,11.83 22.37,26.52 23.59,48.88 2.04,37.71 -29.09,78.51 -27.81,117.67 6.76,3.59 72.27,11.36 84.17,11.22 9.09,-0.12 25.17,-11.93 31.23,-16.44 73.59,-54.75 55.82,-137.43 17.27,-211.72 -5.36,-10.31 -2.14,-6.51 -24.73,-10.78 -26.32,-4.96 -51.41,-10.7 -77,-17.29 -14.51,-3.73 -63.76,-16.13 -74.11,-21.16 -43.44,-21.12 -85.66,-45.68 -131.46,-58.09 -6.59,-1.79 -13.04,-3.18 -20.17,-4.18 -11.16,-1.55 -2.87,-1.55 -14.39,-9 -9.03,-5.84 -20.19,-11.42 -30.59,-16.05 -18.32,-8.19 -50.95,-22.66 -60.66,-34.69 -4.9,-6.09 -12.03,-23.37 -14.86,-32.85 -12.46,-41.93 -3.22,-78.26 18.36,-113.11 7.09,-11.46 15.39,-16.15 8.1,-33.99 -4.78,-11.72 -11.22,-19.49 -16.98,-29.67 -5.08,-8.99 -13.04,-24.76 -4.6,-35 10.62,-12.89 39.75,-29.7 51.69,-43.61 13.69,-15.94 5.34,-20.63 -2.86,-29.35 4.72,-11.06 32.45,-22.33 49.03,-26.89 57.54,-15.82 149.77,-15.3 209.45,-13.41 23.3,0.74 48.14,1.71 71.18,3.54 52.49,4.17 49.59,1.8 100.11,12.49 14.37,3.04 16.89,4.04 32.49,3.17zm-489.47 37.5l-30.1 22.76c-25.15,20.39 -33.42,40.72 -18.51,74.07 2.82,6.3 6.17,12.07 9.29,17.11 17.09,27.58 10.44,7.29 -9.03,51.76 -5.61,12.8 -10,26.56 -12.36,41.41 -5.23,32.86 0.94,64.28 12.79,90.84 12.76,28.61 26.94,38.19 54.53,51.91 12.02,5.99 24.49,11.41 36.65,17.11 29.49,13.84 19.34,16.14 32.44,21.31 6.05,2.37 15.06,2.83 22.08,4.28 42.79,8.8 90.23,36.93 130.53,56.1 23.57,11.19 54.85,17.84 81.69,24.72 14.3,3.67 28.48,7.18 43.26,10.51 10.72,2.41 36.71,6.29 44.43,9.39 16.78,30.4 35.31,83.16 21.52,123.77 -6.91,20.36 -20.3,33.12 -33.85,43.24 -14.25,10.63 -15.09,9.99 -27.69,8.98 -9.02,-0.71 -26.92,-1.3 -33.65,-5.21 5.49,-29.82 30.49,-65.94 21.12,-108.16 -6.01,-27.1 -20.63,-45.08 -38.21,-62.18 -7.28,-7.08 -10.19,-8.54 -22.97,-10.48 -94.21,-14.37 -202.79,-31.85 -299.45,-35.94 -24.74,-1.04 -33.35,6.44 -41.3,25.39 -7.3,17.4 -10.46,36.24 -9.64,57.53 0.4,10.28 1.71,20.36 3.57,30.11 1.14,6 6.86,23.5 5.15,27.95 -2.09,5.43 -20.27,26.47 -27.86,39.2 -11.59,19.44 -11.21,30.53 -5.2,54.08 4.56,17.86 9.08,35.07 13.82,53.12 19.64,74.68 1.46,54.74 129.64,71.98 19.92,2.67 36.07,6.76 52.28,14.81 7.77,3.85 14.55,8.11 20.7,12.76 8.03,6.08 10.66,8.83 24,9.76 41.72,2.91 83.98,5.48 125.84,7.34 20.88,0.92 42.34,1.82 62.92,4.15 18.91,2.13 45.09,-0.28 64.87,-0.98 89.38,-3.13 285.96,-7.37 369.34,-33.06 17.85,-5.5 33.7,-11.08 34.96,-31.88 1.45,-23.8 -17.59,-26.98 -27.91,-39.31 5.3,-13.99 35.64,-32.01 41.86,-51.28 2.6,-8.03 4.35,-17.36 5.37,-26.06 4.45,-38.04 -1.7,-77.3 -9.86,-112.25 -7.9,-33.86 -14.99,-68.08 -22.76,-102.01 -3.05,-13.35 -8.04,-37.88 -14.12,-47.77 -7.58,-12.35 -24,-16.3 -40.3,-22.56 -109.38,-42.05 -210.07,-79.43 -321.62,-115.45 -24.32,-7.86 -42.91,-0.3 -58.6,-4.05 -0.75,-1.54 -5.05,-26.25 -9.18,-38.68 -4.09,-12.3 -9.13,-22.19 -13.79,-33.88 -5.77,-14.47 -23.75,-57.16 -23.73,-71.97 22.92,-15.06 69.03,-13.57 98.49,-12.08 15.18,0.77 17.52,4.39 28.52,9.26 -0.95,7.83 -7.62,25.3 -10.33,33.5 -4.33,13.11 -11.45,16.31 -10.92,33.5 1.39,45.66 40.42,79.29 75.21,100.99 7.68,4.78 20.08,13.72 31.03,14.1 13.41,0.45 25,-7.97 28.1,-17.21 14.61,1.61 29.67,5.76 44.72,7.73 13.95,1.82 35.8,0.68 50.94,1.03 32.65,0.77 65.96,2.22 97.99,6.2 16.13,2 28.96,5.9 43.54,8.31 16.56,2.74 28.52,-7.52 33.1,-18.53 8.85,-21.27 -8.84,-14.84 6.9,-40.74 6.45,-10.58 13.47,-22.33 15.97,-36.78 3.1,-17.83 -2.72,-26.94 -7.44,-41.79 -12.93,-40.7 -24.83,-79.53 -34.57,-121.58 -8.62,-37.21 -6,-32.89 -50.98,-53.44 -23.48,-10.73 -46.92,-22.5 -71.27,-33.17 -84.9,-37.23 -66.31,-36.56 -173.19,-32.45 -24.87,0.95 -22.97,3.07 -46.1,-1.8 -13.71,-2.87 -30.5,-7.09 -44.19,-8.49 -82.99,-8.44 -220.21,-13.59 -298.23,-3.43 -37.96,4.94 -88.43,14.89 -113.58,42.75 -4.5,4.99 -7.89,8.05 -9.8,16.56 -2.63,11.67 1.05,14.36 3.12,23.29z"/>
   </g>
   <g>
    <path class="fil1" d="M5531.43 989.21c-1.86,-0.94 -5.34,-2.07 -8.74,-3.1 -0.37,32.14 1.01,65.35 0.69,93.15 -0.31,26.91 -0.06,54.58 -1.49,81.43 -0.72,13.67 -1.9,27.14 -12.12,37.42 -10.68,10.77 -9.49,6.2 -17.67,23.78l-7.37 15.83 -17.45 -0.77c-37.7,-1.65 -72.8,-12.38 -110.67,-12.78 -41.47,-0.44 -82.95,0.11 -124.42,-0.51l-13.89 -0.22 -7.59 -11.64c-9.45,-14.51 -10.32,-25.24 -17.55,-38.51 -6.55,-12.03 -16.2,-17.01 -22.79,-28.81 -2.07,-3.72 -3.79,-7.61 -5.15,-11.64 -6.61,-19.68 -3.77,-43.35 -3.83,-63.94 -0.1,-35.97 -6.07,-70.04 -15.58,-104.69 -1.52,-5.54 -4.3,-17.53 -6.95,-23.9 -9.46,-5.85 -16.63,-9.51 -26.29,-17.37l-14.45 -11.75 6.41 -17.49c2.44,-6.67 11.82,-32.45 11.74,-41.02 -2.45,-3.08 -6.91,-7.09 -9.43,-10.02 -8.31,-9.66 -14.28,-20.31 -18.93,-32.15 -6.47,-16.54 -9.18,-50.69 -11.26,-68.98 -2.06,-18.06 -3.62,-38.04 -7.07,-55.81 -7.26,-37.33 -29.37,-63.36 -42.05,-97.7 -15.73,-42.6 -7.87,-80.9 11.93,-120.69l6.98 -14.03 15.68 -0.43c42.35,-1.15 83.32,7.03 125.38,8.04 21.37,0.51 42.73,0.94 64.05,2.35 9.73,0.65 22.98,1.42 32.25,3.67 2.17,0.53 4.29,1.2 6.44,1.84l2.21 0.67 20.48 10.35 3.56 4.53c26.07,33.03 13.38,80.15 14.05,119.18 19.15,18.66 35.47,42.38 28.94,70.4 -3.87,16.59 -14.16,28.08 -22.83,39.81l27.71 10.33c19.85,-54.5 31.9,-196.67 39.48,-248.85l2.93 -20.14 20.26 -2.07c30.69,-3.14 61.05,-0.27 91.69,-1.58 32.13,-1.38 97.14,-8.58 117.24,23.32 9.56,15.16 7.4,32.62 5.84,49.48 -1.76,19.07 -2.35,36.2 0.16,55.34 3.25,24.75 23.77,43.79 31.31,70.31 6.91,24.25 5.05,49.94 2.21,74.66 -1.64,14.29 -6,34.29 -4.85,51.81 12.23,-37.74 23.44,-74.65 26.35,-116.73 6.28,-90.68 -47.49,-86.62 16.19,-187.94l7.51 -11.96 14.12 -0.24c21.56,-0.39 40.19,1.49 61.4,3.69 21.51,2.24 39.51,0.82 60.93,-2.57 40.49,-6.41 138.26,-27.66 142.19,37.11l0.04 0.79 0 11.47 -0.31 1.99c-9.06,58.53 -36.95,25.35 -24.41,102.25 2.7,16.51 2.73,32.43 -6.83,46.9 -6.39,9.65 -14.03,14.48 -19.53,25.45 -0.81,1.62 -2.78,5.34 -2.96,7.2 0.49,2.43 2.68,6.72 3.62,9.19 3.42,9.02 5.47,17.88 6.4,27.49l1.31 13.47 -10.24 8.83c-4.8,4.15 -22.58,19.14 -24.36,25.57 -1.14,4.12 -0.33,13.16 -0.1,17.42 0.92,16.48 1.39,32.37 0.75,48.91 -1.09,28.69 -4.92,52.1 -17.83,77.89 -6.57,13.11 -13.4,24.76 -18.69,38.64 -4.75,12.44 -3.88,35.08 -3.98,48.48 -0.21,27.03 -1.72,52.58 -10.75,78.37 -4.46,12.76 -17.8,35.96 -19.33,47.47 -0.94,7.08 -0.16,12.69 1.23,19.62 3,14.92 5.03,26.42 3.68,41.93l-1.2 13.96 -12.3 6.72c-72.68,39.66 -83.79,1.74 -142.05,11.12 -46.32,7.44 -143.18,10.27 -159.24,-46.57 -2.19,-7.72 -2.65,-13.57 -3.62,-21.3 -2.77,-22.35 -9.85,-65.46 -4.38,-87.82 4.46,-18.25 -0.19,-58.74 -1.68,-76.92 -0.12,-1.55 -0.48,-5.06 -1.12,-7.01zm1098.32 -246.27c1.04,9.77 4.03,23.53 5.29,30.46 7.37,40.39 15.22,80.7 22.79,121.06 18.01,96.06 21.99,279.34 -71.51,338.61 -46.52,29.49 -203.67,31.1 -259.03,29.62 -64.27,-1.71 -247.25,-9.11 -270.83,-86.17 -9.85,-32.19 3.47,-55.45 -6.63,-89.51 -11.19,-37.71 -10.02,-63.26 -6.46,-101.84 2.98,-32.23 1.64,-63.35 1.5,-95.58 -0.03,-7.11 0.28,-26.48 -1.39,-35.09 -8.33,-8.42 -12.42,-13.88 -17.87,-25.8l-6.11 -13.38 8.27 -12.16c5.94,-8.73 18.35,-28.11 18.35,-39.31 0,-4.9 -4.58,-11.71 -6.76,-15.97 -2.97,-5.81 -5.3,-11.66 -6.59,-18.1 -8.34,-41.32 33.85,-204.28 71.31,-225.38 50.17,-28.28 192,-31.34 252.04,-29.96 10.5,0.23 20.98,-0.4 31.42,-1.39 80.63,-7.64 129.43,-18.5 204.26,28.36 27.69,17.35 37.98,46.88 64.23,67.33l13.37 10.44 -4.09 16.45c-3.74,15.03 -25.03,55.72 -24.95,64.41 7.82,18.97 16.55,26.08 8.5,50.16 -4.57,13.7 -9.51,24.05 -19.09,32.73zm-306.41 -108.73c0.31,3.3 0.69,6.59 1.08,9.84 2.97,24.45 13.19,67.42 9.94,90.22 -6.48,45.64 -2.4,85.54 -4.87,130.8 -0.71,13.13 -2.4,27.47 -10.16,37.01 0.17,2.77 0.42,5.56 0.59,7.81l11.83 179.25 36.98 2.4 2.88 -4.03c-3.85,-9.87 -6.8,-9.72 -15.2,-21.97 -9.75,-14.2 -8.54,-30.41 -6.08,-46.59 4.77,-31.37 13.57,-64.59 21.07,-95.45 0.79,-3.25 2.36,-9.34 2.94,-13.8 -6.59,-9.15 -9.59,-15.91 -12.24,-28.43l-0.41 -1.99 -13.11 -244.3 -25.23 -0.79zm1394.31 533.97c-17.52,-23.75 -32.7,-50.39 -38.52,-79.29 -4.45,-22.06 -2.14,-38.43 -1.13,-60.1 0.57,-12.02 -1,-21.68 -4.5,-30.58 -30.9,60.06 -28.47,149.66 -35.12,211.11l-2.37 21.99 -22.09 1.26c-34.16,1.96 -74.65,-7.23 -110.02,-7.91 -41.79,-0.81 -83.61,-0.48 -125.41,-0.28l-25.07 0.12 -1.13 -25.05c-0.83,-18.36 -4.56,-45.24 9.05,-59.72 6.92,-7.36 6.7,-3.57 11.9,-13.05 1.96,-3.56 3.36,-6.67 3.4,-10.75 0.11,-13.84 -2.43,-24.76 -1.13,-39.95l1.35 -15.62 37.56 -16.03 -6.57 -86.6 8.8 -8.52c4.19,-4.05 18.43,-18.11 21.36,-24.44 -3.38,-23.32 -2.86,-32.91 8.69,-55.25 15.58,-30.16 38.38,-29.02 39.41,-59.62 -10.3,-7.7 -18.34,-6.21 -29.01,-30.79 -11.85,-27.37 0.38,-32.26 -15.43,-57.54 -24.38,-38.97 -9.16,-36.52 -9.61,-72.92 -0.36,-29.77 -11.15,-59.12 -22.93,-86.07 -10.03,-22.98 -26.72,-53.97 -29.51,-78.55l-3.43 -30.14 267.25 9.75 5.59 17.43c5.7,17.72 8.89,36.48 4.33,54.83 -2.64,10.58 -6.9,16.17 -10.57,25.32 -1.88,4.72 8.32,20 10.54,23.37 2.78,4.19 5.69,8.18 8.63,12.08 2.46,-9.8 4.85,-18.78 5.9,-24.64 5.99,-33.22 11.31,-69.76 34.78,-95.82 42.04,-46.68 162.96,-32.27 221.95,-33.89l27.18 -0.74 -0.36 27.19c-0.84,62.76 -7.74,100.2 -33.79,156.23 -4.53,9.75 -8.8,19.4 -12.14,29.63 -0.73,2.27 -2.11,6.35 -2.63,9.24 5.44,14.07 7.07,21.37 7.15,37.74l0.06 13.26 -10.67 7.87c-29.67,21.88 -35.25,37.57 -28.38,74.28 5.61,29.97 3.63,59.29 8.65,87.31 1.78,9.87 4.95,18.34 10.11,26.95 19.39,32.31 31.96,66.58 47.29,100.76 10.16,22.7 30.91,48.66 44.25,70.7 5.55,9.14 10.82,18.59 15.12,28.39l51.31 96.7 -81.45 2c-24.24,10.4 -61.88,6.46 -85.85,4.4 -8.51,-0.72 -33.3,-3.4 -49.94,-3.52l4.29 15.7 -141.87 -3.4 14.43 -35.13c3.03,-7.36 5.89,-13.69 10.31,-19.7zm-926.53 -595.06c-16.85,-18.35 -28.29,-36.75 -29.77,-66.25l-0.99 -19.89 18.92 -6.21c55.16,-18.13 119.28,-33.14 177.45,-22.29 15.04,2.81 28.88,7.23 43.17,12.56 8.4,3.12 17.71,7 26.52,8.63 1.32,0.24 2.66,0.44 4.01,0.57 26.89,2.54 70.53,-10.83 99.13,-14.37 55.56,-6.88 103.02,3.22 149.66,35.12 97.63,66.75 73.79,131.06 66.23,234.09 -1.64,22.27 -2.16,51.92 -21.11,67.09 -20.21,16.17 -63.06,8.82 -88.05,8.37 -39.25,-0.71 -108.42,8.83 -141.74,-10.67l-5 -2.93 -3.3 -4.77c-25.01,-36.22 -14.37,-109.53 -13.55,-156.06 -7.11,-8.23 -19.78,-14.06 -32.37,-17.31 0.28,44.99 5.98,90.19 3.57,135.41 -1.19,22.51 -9.31,48.16 -8.74,69.28 0.2,7.67 0.38,11.59 4.29,17.88 8.33,13.39 11.67,23.67 13.16,39.56 5.36,57.78 10.56,277.85 -13.18,322.61l-1.94 3.66 -3 2.88c-41.13,39.69 -87.28,35.2 -139.76,30.68 -55.51,-4.78 -88.79,29.91 -141.32,-18.58l-20.96 -19.35 40.36 -36.64c-3.11,-33.65 -8.93,-66.49 -14.02,-99.96 -9.86,-64.75 -11.96,-119.4 -0.79,-184.51 2.78,-16.23 10.04,-47 9.18,-62.53 -0.3,-5.29 -0.2,-10.35 -3.07,-14.8 -10.4,-16.13 -11.04,-32.82 -10.95,-51.56 0.33,-71.72 4.19,-52.45 -28.29,-110.46l-14.02 -25.04 26.24 -11.59c15.98,-7.07 25.96,-19.09 40.76,-27.13 4.39,-2.4 8.82,-4.18 13.28,-5.48z"/>
    <path class="fil1" d="M5466.13 923.91c-1.86,-0.93 -5.33,-2.06 -8.74,-3.08 -0.36,32.14 1.02,65.35 0.7,93.14 -0.32,26.92 -0.07,54.59 -1.49,81.44 -0.73,13.67 -1.9,27.14 -12.12,37.42 -10.68,10.77 -9.49,6.19 -17.67,23.78l-7.37 15.83 -17.45 -0.77c-37.7,-1.66 -72.8,-12.38 -110.67,-12.78 -41.48,-0.44 -82.96,0.11 -124.42,-0.51l-13.9 -0.22 -7.58 -11.64c-9.45,-14.51 -10.32,-25.24 -17.55,-38.51 -6.55,-12.04 -16.2,-17.01 -22.79,-28.82 -2.07,-3.72 -3.79,-7.6 -5.16,-11.63 -6.6,-19.68 -3.76,-43.35 -3.82,-63.95 -0.1,-35.97 -6.07,-70.03 -15.58,-104.69 -1.52,-5.54 -4.3,-17.52 -6.95,-23.89 -9.46,-5.85 -16.63,-9.51 -26.29,-17.37l-14.45 -11.75 6.41 -17.49c2.44,-6.67 11.82,-32.45 11.73,-41.02 -2.45,-3.08 -6.9,-7.09 -9.42,-10.02 -8.31,-9.66 -14.29,-20.31 -18.93,-32.15 -6.48,-16.54 -9.18,-50.69 -11.26,-68.98 -2.06,-18.06 -3.62,-38.04 -7.07,-55.82 -7.26,-37.33 -29.37,-63.35 -42.05,-97.69 -15.74,-42.6 -7.88,-80.9 11.93,-120.69l6.98 -14.03 15.68 -0.43c42.35,-1.16 83.32,7.03 125.38,8.04 21.37,0.51 42.72,0.94 64.05,2.35 9.73,0.65 22.98,1.41 32.25,3.67 2.17,0.53 4.29,1.2 6.44,1.84l2.21 0.67 20.47 10.34 3.57 4.53c26.07,33.04 13.38,80.16 14.05,119.18 19.14,18.67 35.47,42.39 28.94,70.4 -3.87,16.6 -14.16,28.08 -22.84,39.81l27.73 10.34c19.85,-54.5 31.9,-196.67 39.48,-248.85l2.93 -20.15 20.26 -2.06c30.69,-3.14 61.04,-0.27 91.69,-1.58 32.13,-1.38 97.14,-8.58 117.24,23.32 9.56,15.14 7.4,32.62 5.84,49.47 -1.76,19.08 -2.35,36.21 0.16,55.35 3.25,24.75 23.77,43.79 31.31,70.31 6.91,24.25 5.05,49.94 2.2,74.66 -1.64,14.29 -5.99,34.29 -4.84,51.81 12.23,-37.74 23.44,-74.66 26.35,-116.73 6.28,-90.68 -47.49,-86.62 16.18,-187.94l7.52 -11.96 14.11 -0.24c21.57,-0.4 40.19,1.49 61.4,3.69 21.52,2.24 39.52,0.81 60.94,-2.57 40.49,-6.42 138.26,-27.66 142.18,37.1l0.04 0.79 0 11.48 -0.3 1.99c-9.08,58.53 -36.95,25.35 -24.41,102.25 2.7,16.51 2.73,32.43 -6.83,46.89 -6.39,9.66 -14.03,14.49 -19.53,25.45 -0.82,1.63 -2.8,5.35 -2.96,7.21 0.48,2.42 2.68,6.72 3.62,9.19 3.41,9.02 5.47,17.88 6.4,27.49l1.31 13.47 -10.24 8.83c-4.8,4.15 -22.58,19.14 -24.36,25.57 -1.14,4.12 -0.33,13.16 -0.1,17.41 0.92,16.48 1.38,32.37 0.75,48.91 -1.09,28.7 -4.92,52.11 -17.83,77.9 -6.57,13.11 -13.4,24.76 -18.71,38.63 -4.75,12.45 -3.87,35.08 -3.97,48.48 -0.21,27.04 -1.72,52.59 -10.75,78.39 -4.46,12.76 -17.8,35.96 -19.33,47.46 -0.94,7.08 -0.16,12.69 1.23,19.62 3,14.93 5.01,26.42 3.68,41.94l-1.2 13.96 -12.3 6.71c-72.68,39.68 -83.79,1.75 -142.06,11.13 -46.31,7.44 -143.17,10.26 -159.24,-46.57 -2.17,-7.72 -2.65,-13.57 -3.62,-21.3 -2.77,-22.35 -9.84,-65.46 -4.37,-87.82 4.46,-18.25 -0.2,-58.74 -1.68,-76.92 -0.12,-1.55 -0.48,-5.06 -1.13,-7.02zm1098.33 -246.27c1.03,9.79 4.03,23.53 5.29,30.47 7.37,40.39 15.22,80.7 22.79,121.06 18,96.06 21.99,279.34 -71.51,338.61 -46.52,29.48 -203.67,31.1 -259.03,29.62 -64.27,-1.71 -247.25,-9.12 -270.83,-86.17 -9.85,-32.19 3.46,-55.45 -6.65,-89.51 -11.18,-37.72 -10.01,-63.27 -6.45,-101.85 2.98,-32.22 1.64,-63.34 1.5,-95.57 -0.03,-7.12 0.28,-26.48 -1.4,-35.1 -8.32,-8.42 -12.4,-13.88 -17.86,-25.78l-6.12 -13.38 8.28 -12.17c5.94,-8.72 18.35,-28.11 18.35,-39.31 0,-4.89 -4.58,-11.71 -6.76,-15.95 -2.98,-5.81 -5.3,-11.67 -6.6,-18.1 -8.34,-41.33 33.85,-204.28 71.31,-225.38 50.18,-28.28 192.01,-31.35 252.05,-29.97 10.5,0.24 20.98,-0.39 31.42,-1.39 80.63,-7.63 129.42,-18.48 204.25,28.37 27.7,17.35 37.99,46.88 64.23,67.33l13.38 10.43 -4.09 16.46c-3.75,15.03 -25.03,55.72 -24.95,64.41 7.82,18.97 16.55,26.08 8.5,50.16 -4.57,13.7 -9.51,24.05 -19.09,32.72zm-306.41 -108.72c0.31,3.3 0.69,6.59 1.08,9.84 2.97,24.45 13.18,67.42 9.94,90.22 -6.48,45.63 -2.4,85.54 -4.87,130.8 -0.71,13.13 -2.4,27.47 -10.16,37.01 0.17,2.76 0.42,5.56 0.59,7.81l11.82 179.25 36.99 2.4 2.87 -4.03c-3.84,-9.87 -6.79,-9.72 -15.19,-21.97 -9.75,-14.2 -8.54,-30.41 -6.09,-46.59 4.78,-31.38 13.58,-64.59 21.08,-95.45 0.79,-3.25 2.36,-9.34 2.93,-13.8 -6.58,-9.15 -9.57,-15.91 -12.23,-28.44l-0.41 -1.97 -13.11 -244.3 -25.23 -0.79zm1394.31 533.97c-17.52,-23.75 -32.7,-50.4 -38.52,-79.29 -4.45,-22.06 -2.14,-38.43 -1.13,-60.1 0.55,-12.02 -1,-21.69 -4.5,-30.59 -30.9,60.07 -28.48,149.67 -35.13,211.12l-2.37 21.99 -22.08 1.26c-34.16,1.96 -74.65,-7.24 -110.02,-7.92 -41.79,-0.8 -83.61,-0.47 -125.41,-0.27l-25.07 0.12 -1.13 -25.05c-0.83,-18.36 -4.56,-45.26 9.05,-59.73 6.92,-7.36 6.69,-3.56 11.9,-13.05 1.96,-3.56 3.36,-6.66 3.4,-10.74 0.11,-13.84 -2.44,-24.76 -1.13,-39.95l1.34 -15.62 37.57 -16.03 -6.57 -86.6 8.8 -8.52c4.18,-4.05 18.43,-18.11 21.35,-24.44 -3.37,-23.32 -2.85,-32.91 8.7,-55.26 15.57,-30.14 38.37,-29.01 39.41,-59.61 -10.3,-7.7 -18.35,-6.21 -29.01,-30.8 -11.86,-27.37 0.38,-32.25 -15.43,-57.53 -24.38,-38.97 -9.16,-36.52 -9.61,-72.93 -0.37,-29.76 -11.16,-59.11 -22.93,-86.06 -10.03,-22.98 -26.73,-53.97 -29.51,-78.56l-3.43 -30.13 267.25 9.75 5.59 17.42c5.7,17.73 8.89,36.48 4.32,54.84 -2.63,10.58 -6.89,16.17 -10.56,25.32 -1.88,4.72 8.31,20 10.54,23.37 2.77,4.19 5.68,8.18 8.63,12.08 2.46,-9.8 4.85,-18.78 5.9,-24.64 5.99,-33.23 11.31,-69.76 34.77,-95.82 42.04,-46.68 162.97,-32.27 221.96,-33.89l27.18 -0.74 -0.37 27.18c-0.83,62.77 -7.73,100.21 -33.78,156.24 -4.53,9.75 -8.81,19.4 -12.14,29.63 -0.74,2.27 -2.11,6.35 -2.63,9.24 5.44,14.07 7.07,21.37 7.15,37.73l0.06 13.27 -10.67 7.87c-29.67,21.88 -35.26,37.57 -28.38,74.28 5.61,29.96 3.63,59.28 8.65,87.31 1.78,9.87 4.94,18.33 10.11,26.95 19.39,32.31 31.96,66.58 47.29,100.76 10.16,22.69 30.91,48.65 44.25,70.7 5.55,9.14 10.81,18.59 15.12,28.39l51.31 96.7 -81.45 2c-24.24,10.4 -61.88,6.46 -85.85,4.4 -8.51,-0.72 -33.3,-3.4 -49.94,-3.53l4.28 15.71 -141.86 -3.4 14.43 -35.13c3.03,-7.37 5.89,-13.69 10.31,-19.7zm-926.54 -595.06c-16.84,-18.35 -28.28,-36.75 -29.76,-66.26l-0.99 -19.89 18.92 -6.21c55.15,-18.12 119.28,-33.14 177.45,-22.28 15.04,2.81 28.88,7.23 43.17,12.55 8.39,3.13 17.71,7.01 26.52,8.64 1.32,0.24 2.65,0.44 4.01,0.57 26.89,2.54 70.53,-10.83 99.13,-14.37 55.56,-6.88 103.02,3.22 149.65,35.12 97.65,66.75 73.8,131.05 66.23,234.09 -1.63,22.27 -2.15,51.92 -21.1,67.08 -20.21,16.18 -63.06,8.82 -88.05,8.37 -39.25,-0.7 -108.42,8.84 -141.75,-10.66l-4.99 -2.94 -3.3 -4.76c-25.01,-36.22 -14.38,-109.54 -13.55,-156.06 -7.11,-8.23 -19.79,-14.06 -32.37,-17.31 0.28,44.99 5.98,90.19 3.57,135.41 -1.2,22.51 -9.32,48.15 -8.74,69.28 0.2,7.67 0.38,11.59 4.28,17.88 8.34,13.39 11.68,23.67 13.17,39.56 5.36,57.77 10.56,277.85 -13.18,322.59l-1.94 3.67 -3 2.88c-41.13,39.69 -87.28,35.2 -139.76,30.68 -55.51,-4.78 -88.8,29.91 -141.33,-18.58l-20.95 -19.35 40.36 -36.64c-3.11,-33.65 -8.93,-66.5 -14.03,-99.96 -9.85,-64.76 -11.95,-119.4 -0.78,-184.51 2.77,-16.23 10.04,-47.01 9.18,-62.53 -0.3,-5.3 -0.2,-10.36 -3.07,-14.81 -10.4,-16.12 -11.04,-32.81 -10.96,-51.55 0.33,-71.72 4.2,-52.45 -28.28,-110.47l-14.02 -25.03 26.24 -11.59c15.98,-7.07 25.96,-19.09 40.76,-27.13 4.39,-2.4 8.82,-4.19 13.27,-5.48z"/>
    <path class="fil0" d="M5063.77 837.41c33.27,27.08 28.14,4.3 41.94,54.61 30.54,111.33 5.99,145.49 22.17,174.44 5.15,9.23 13,10.83 22.93,29.06 9.36,17.19 5.99,20.65 16.49,36.76 41.25,0.62 82.88,0.06 124.31,0.5 45.59,0.48 70.02,10.98 111.55,12.81 28.79,-61.83 27.09,16.25 28.84,-131.92 0.53,-45.59 -2.57,-126.54 5.37,-167.65l29.41 -2.07 -9.77 49.56c21.3,6.88 34.02,7.34 36.29,35.31 11.12,136.78 -10.09,34.75 5.95,163.63 0.98,7.86 0.65,9.75 2.83,17.43 10.81,38.22 99.83,32.73 129.98,27.88 60.91,-9.8 71.53,25.67 133.68,-8.25 2.31,-26.81 -8.09,-37.9 -4.77,-62.75 2.06,-15.5 14.7,-35.91 20.56,-52.65 16.71,-47.72 3.05,-96.3 14.98,-127.56 16.08,-42.1 32.51,-46.96 34.83,-108.21 2.81,-73.68 -15.67,-68.92 32.75,-110.67 -3,-30.84 -18.24,-30.49 -4.42,-58.1 14.43,-28.84 29.6,-21.66 23.94,-56.46 -14.08,-86.28 17.59,-66.66 24.36,-110.44l0 -8.69c-2.1,-34.78 -81.35,-17.75 -112.02,-12.89 -63.81,10.11 -68.43,-1.84 -125.96,-0.81 -57.23,91.06 -5.46,77.85 -12.24,175.85 -4.63,66.8 -27.37,118.73 -43.39,172.84 -66.11,-29.92 -14.16,-116.47 -31.48,-177.23 -8.72,-30.62 -27.45,-38.75 -32.09,-74.07 -12.39,-94.52 43.47,-111.43 -96.24,-105.46 -30.03,1.28 -60.51,-1.56 -90.15,1.46 -8.61,59.3 -23.48,223.01 -46.71,267.75 -29.31,56.41 5.44,16.76 0.41,80.25 -26.57,-2.31 -37.26,-10.82 -54.31,-20.63 -0.8,-33.41 9,-35.63 19.49,-60.32l-48.81 -18.18c13.31,-44.4 68.65,-56.52 5.26,-112.38 -3,-34.19 10.81,-89.85 -9.01,-114.95l-13.28 -6.71c-1.44,-0.43 -3.46,-1.07 -5.1,-1.48 -4.9,-1.19 -22.71,-2.64 -27.79,-2.98 -21.22,-1.4 -41.74,-1.79 -62.94,-2.3 -43.06,-1.03 -82.12,-9.2 -124.05,-8.05 -48.44,97.36 16.89,122.15 32.39,201.78 4.83,24.83 10.96,104.79 17.01,120.23 19.48,49.76 46.75,20.09 16.82,101.71z"/>
    <path class="fil0" d="M6230.94 541.95l77.15 2.41 14.28 266.23c6.66,31.53 19.46,11.16 9.11,53.79 -40.61,167.32 -16.49,90.15 3.69,162.42l-18.97 26.44 -74.29 -4.8 -13.32 -202.1c-3.57,-47.59 7.11,-3.04 9.56,-47.96 3.03,-55.61 -3.22,-74.59 5.08,-133.05 3.01,-21.17 -13.78,-78.88 -12.29,-123.36zm-246.86 210.58c15.44,33.75 21.3,2.23 21.62,71.64 0.17,35.51 1.72,62.15 -1.61,98.1 -3.47,37.49 -4.58,58.07 5.48,92.01 13.41,45.19 -2.39,60.01 6.58,89.3 26.73,87.35 434.14,78.13 490.91,42.14 80.49,-51.04 76.28,-223.95 59.82,-311.74 -45.01,-240.2 -29.06,-134.57 -8.08,-197.33 5.6,-16.79 -6.88,-24.46 -9.31,-36.54 -3.75,-18.73 19.62,-53.73 25.17,-76.06 -33.44,-26.08 -38.03,-50.78 -62.02,-65.79 -87.52,-54.82 -151.84,-21.38 -222.42,-23.01 -55.83,-1.29 -195.26,2.16 -238.64,26.61 -24.34,13.72 -64.66,167.08 -58.53,197.47 4.75,23.55 33.41,30.83 -9,93.21z"/>
    <path class="fil0" d="M7637.75 597.04c-31.75,9 -26.57,5.49 -41.32,-20.8 -9.35,-16.69 -19.8,-26.87 -30.17,-42.52 -40.06,-60.46 14.11,-43.13 -7.38,-109.95l-218.62 -7.98c4.04,35.59 51.77,98.12 52.61,167.24 0.53,42.87 -13.1,29.43 5.64,59.39 22.43,35.87 5.82,34.62 17.25,61 9.06,20.89 14.52,11.47 30.77,29.52 4.84,55.05 -27.45,55.25 -41.93,83.26 -24.22,46.89 20.24,32.95 -35.07,86.47l7.06 93.03 -40.34 17.23c-2.59,30.01 7.23,38.03 -5.4,61.03 -17.03,30.99 -20.43,-0.12 -17.75,59.02 41.84,-0.2 84.21,-0.52 126.03,0.28 30.87,0.59 87.01,9.15 108.02,7.96 10.62,-98.24 4.52,-192.85 61.7,-254.85 70.42,83.49 -17.76,98 73.09,212.14 -6.37,26.28 -4.93,7.76 -15.72,34.01l68.88 1.65c-9.5,-34.88 127.71,5.9 159.29,-15.61l45.21 -1.11 -31.99 -60.28c-3.64,-8.43 -8.49,-17.27 -13.92,-26.23l-0.02 -0.04c-15.95,-26.35 -36.79,-53.57 -45.72,-73.48 -15.27,-34.07 -26.82,-66.33 -45.83,-98.02 -22.8,-37.98 -11.53,-66.68 -22.05,-122.88 -9.4,-50.23 3.59,-74.31 38.55,-100.1 -0.18,-37.66 -13.98,-22.13 -3.24,-55.17 16.07,-49.42 43.17,-67.39 44.65,-178.14 -59.63,1.63 -171.3,-10.22 -203.27,25.26 -18.13,20.13 -22.76,51.21 -28.48,82.99 -13.79,76.44 -24.96,49.33 9.49,85.66z"/>
    <path class="fil0" d="M6722.15 440.28c1.61,32.16 21.2,48.75 38.02,65.29 40.09,-0.7 86.66,0.34 114.98,18.48 -29.73,26.77 -60.91,25.23 -102.15,12.34 -52.78,-16.51 -51.49,10.62 -90.63,27.93 31.74,56.71 32,39.92 31.62,123.34 -0.23,49.11 11.8,25.82 13.98,64.77 0.91,16.09 -6.47,50.69 -9.51,68.4 -20.95,122.12 8.92,187.69 16.14,290.76l-28.76 26.11c41.28,38.12 69.98,6.95 125.85,11.76 47.8,4.12 86.15,8.62 119.39,-23.45 18.98,-35.79 15.58,-250.47 10.24,-307.95 -3.04,-32.72 -16.6,-23.74 -17.55,-59.17 -0.58,-21.71 7.44,-46.29 8.78,-71.36 2.84,-53.42 -5.87,-110.55 -2.95,-163.08 48.88,-2.14 79.89,28.41 83.97,38.78 0.36,40.91 -11.06,119.9 8.9,148.82 24.74,14.49 93.43,6.46 129.01,7.1 75.6,1.35 77.85,14.16 82.66,-51.26 8.23,-112.05 26.97,-154.64 -54.93,-210.64 -96.53,-65.99 -175.85,-10.58 -236.5,-16.3 -45.52,-4.29 -77.02,-54.39 -240.55,-0.67z"/>
    <path class="fil1" d="M3665.13 1154.99c-1.1,-1.69 -2.35,-3.13 -3.79,-4.12 -9.81,-6.8 -44.17,-4.67 -55.74,-4.32 -53.2,1.64 -216.12,1.53 -258.14,-21.15l-98.12 -51.74 -1.07 -14.42c-1.94,-26.27 -1.76,-48.91 24.35,-59 5.48,-15.84 5.6,-65.58 5.54,-77.83 -0.26,-46.18 -3.66,-91.95 -8.52,-137.85 -11.39,-107.36 -26.51,-209.57 -28.92,-318.21l-0.32 -14.51 12.16 -7.93c15.22,-9.94 25.3,-20.15 39.08,-30.93 21.38,-16.74 48.18,-23.09 74.24,-28.67 67.23,-14.41 134.25,-19.96 202.51,-10.22 14.81,2.12 70.37,15.13 81.98,12.86 7.16,-1.4 15.32,-5.15 22.1,-7.88 12.63,-5.1 24.86,-9.39 38.29,-12 53.11,-10.36 189.57,-12.44 236.6,12.4 45.29,23.92 38.09,105.84 40.73,149.73 4.32,71.63 17.59,76.44 -12.43,148.73 -3.56,8.54 -14.94,32.77 -18.85,45.34 2.26,2.2 4.75,4.44 6.69,6.46 8.29,8.65 15.52,18.04 22.1,28.05l6.91 10.52 -3.92 11.96c-2.27,6.95 -4.32,15.72 -7.56,23.25l30.04 13.72 -29.89 26.62c-0.5,0.45 -1.12,1 -1.76,1.58 2.05,8.38 5.96,18.84 7.77,27.03 6.38,28.86 8.08,59.52 8.08,88.99 0.01,26.96 -0.87,59.78 -8.47,85.86 -3.63,12.47 -7.47,17.19 -12.5,27.26 0.24,5.94 4.64,19.9 6.1,24.69 17.72,57.95 56.93,74.86 7.44,136.64 -59.59,74.4 -77.99,28.41 -125.99,57.06 -39.89,23.79 -35.41,17.42 -79.66,19.62l-242.23 12.05c-54.18,0.98 -224.45,18.43 -259.21,-22.36 -21.37,-25.07 -29.18,-59.78 -18.38,-91.18l0.67 -1.94 0.97 -1.81c16.6,-31.28 63.85,-36.46 95.3,-38.58 44.57,-3.01 90.73,-0.98 135.42,-0.1 28.59,0.57 132.51,3.91 170.42,-13.67zm-41.17 -157.92c9.49,-10.92 15.48,-23.74 17.32,-38.85 1.73,-14.18 -2.22,-25 -1.33,-36.55 1.24,-16.1 4.19,-31.19 9.64,-46.39 2.11,-5.87 6.1,-14.1 7.29,-19.99 1.76,-8.79 -11.82,-29.87 -16.05,-36.56l-8.5 -13.44 8.03 -13.71c4.04,-6.91 8.81,-12.49 13.38,-18.18 -8.09,-4.43 -16.51,-8.9 -24.12,-15.11l-11.11 -9.05 1.68 -14.23c0.85,-7.24 2.26,-13.11 4.01,-18.06l-10.28 9.3c-4.89,4.4 -31.21,28.69 -30.44,36.42 0.53,5.4 13.32,25.33 16.33,30.67 16.52,29.4 10.9,83.97 9.71,117.27 -0.63,17.74 -5.28,71.62 14.46,86.47zm0.8 -281.67c4.55,-11.94 11.08,-18.56 16.3,-27.76l-25.71 -23.98 23.71 -112.61 0.14 -0.58c0.5,-1.9 1.42,-5.05 2.11,-7.96 -8.8,-3.47 -26.37,-7.13 -41.58,-9.94 -4.86,18.68 -9.76,22.72 -20.75,36.05 0.5,6.44 4.67,19.44 6.15,24 11.66,35.99 29.46,72.08 36.89,109.08l2.74 13.69zm810.72 211.18c-0.43,28.23 3.38,57.39 5.71,85.21 3.27,39.2 4.27,77.56 -4.72,116.17l-2.67 11.49 -10.4 5.58c-64.26,34.53 -214.1,29.88 -284.92,13.65l-17.57 -4.02 -2.46 -17.86c-4.05,-29.36 -10.75,-59.93 -16.33,-89.14 -3.56,-18.57 -19.36,-90.59 -16.59,-106.67l3.65 -21.14 37.6 -0.91c-12.27,-173.19 -29.91,-346.54 -21.93,-520.35l1.14 -24.93 24.96 0.02c67.88,0.07 133.75,8.91 201.94,4.15 34.26,-2.39 74.55,-10.15 105.87,7.87 30.72,17.66 19.52,20.31 57.04,11.08 14.77,-3.63 29.02,-8 43.16,-13.58 9.75,-3.87 19.38,-8.32 29.47,-11.26 32.52,-9.5 73.87,0.39 106.07,7.42 70.9,15.48 93.84,20.98 156.32,58.06l13.15 7.8 -0.37 15.28c-0.73,30.23 -0.99,60.54 -0.85,90.79 0.13,28.85 -0.36,63.52 3.56,91.95 11.97,86.82 10.87,73.89 -12,142.19 22.36,22.11 35.45,33.51 34.66,71.78 -0.61,30.16 -16.23,56.42 -16.89,85.21 -0.37,15.84 0.83,31.62 2.5,47.35 5.67,53.78 12.76,97.24 1.82,151.73l-4.18 20.81 -21.21 0.16c-56.51,0.43 -112.71,-5.43 -169.15,-6.34 -67.55,-1.12 -114.81,31.34 -154.3,-45.73l-3.38 -6.62 0.6 -7.41c1.14,-13.89 3.72,-26.96 11.66,-36.7 -1.68,-5.43 -3.82,-11.19 -5.14,-15.09 -11.93,-35.18 -12.5,-52.86 0.22,-87.93 1.25,-3.45 3.44,-9.1 4.9,-14 -7.17,-11.05 -8.03,-23.63 -7.52,-37.92 0.9,-24.64 5.96,-47.26 4.28,-72.22 -4.72,-70.22 -29.68,-164.1 -16.13,-231.76 3.27,-16.32 8.03,-25.44 14.98,-39.85 0.69,-1.43 1.24,-2.74 1.72,-4.03 -14.53,-18.73 -28.54,-34.92 -55.75,-31.4 -6.61,0.85 -16.29,2.55 -20.7,8.24 -4.6,5.94 -8.96,23.08 -12.33,36.5 7.72,10.23 14.47,20.98 18.85,33.26 5.63,15.79 6.78,32.53 7.66,49.13 1.4,26.43 2.49,52.57 4.65,78.97 3.28,39.97 0,57.85 -4.11,96.1 -0.4,3.68 -1.41,13.56 -0.81,18.63 7.09,4.95 15.8,8.44 23.88,15.04l27.91 22.74 -30.32 19.46c-12.32,7.9 -24.66,15.52 -37.18,22.99zm-2122.52 -81.7c-49.34,-13.75 -101.66,-12.57 -151.01,-31.52 -23.34,-8.96 -45.62,-19.78 -69.35,-27.88 -24.8,-8.47 -47.75,-11.53 -72.16,-22.84 -61.51,-28.52 -108.05,-38.17 -108.92,-120.79 -0.33,-32 6.61,-42.48 18.65,-69.41 1.22,-2.74 2.22,-5.47 2.66,-8.47 0.36,-2.37 1,-5.66 -0.39,-7.78 -12.25,-18.65 -18.85,-22.6 -22.86,-47.6l-1.49 -9.29 4.78 -8.1c7.4,-12.54 14.42,-22.12 26.39,-30.57 4.32,-3.03 6.5,-4.67 9.97,-8.84 5.92,-7.16 3.55,-17.65 5.85,-27.03 5.14,-20.94 21.76,-31.71 40.85,-38.72 30.38,-11.14 71.1,-16.38 103.09,-20.56 91.47,-11.99 179.81,1.14 270.86,-2.27 58.31,-2.19 78.19,-12.7 136.85,10.33 25.73,10.1 51.85,19.22 77.48,29.37 15.11,5.98 30.22,12.55 40.6,25.63 8.55,10.8 12.16,23.85 16,36.81 5.85,19.77 12.16,38.6 19.87,57.76 8.63,21.44 22.18,51.05 14.99,74.37 -2.04,6.6 -5.38,12.16 -8.04,18.43 -3.58,8.4 -5.64,17.57 -7.1,26.56l-3.67 22.53 -22.82 -0.63c-71.41,-2.01 -146.25,-6.37 -217.19,2.35 -39.72,4.88 -81.52,-21.61 -94.02,-59.73 -11.21,-34.19 8.6,-62.05 5.88,-76.89 -10.37,-12.51 -44.38,-10.41 -57.38,-8.3 -13.62,2.21 -33.81,7.9 -46.52,16.8 1.18,19.62 34.26,77.69 39.76,94.63l7.68 23.63c69.7,0.21 103.57,14.6 173.57,34.17 27.47,7.68 54.92,15.5 82.27,23.61 20.9,6.19 72.85,19.96 90.06,31.01 33.73,21.65 58.1,136.6 65.86,176.9 9.2,47.76 9.52,66.78 -22.49,104.5 -2.11,2.5 -7.27,8.69 -9.72,12.97 5.16,8.67 11.64,14.8 16.65,27.04l10.96 26.81 -27.79 8.13c-107.91,31.58 -227.36,39 -338.99,51.25 -35.19,3.86 -170.06,6.67 -199.61,-2.01 -27.47,-8.05 -36.34,-19.9 -66.65,-22.89 -29.02,-2.87 -58.17,-2.55 -87.19,-6.16l-15.09 -1.86 -5.81 -14.03c-16.85,-40.65 -42.4,-92.09 -18.2,-135.01 5.16,-9.14 15.1,-26.07 12.66,-37.33 -2,-9.24 -5,-17.14 -6.42,-26.91 -2.63,-18.03 -0.83,-36.39 2.62,-54.18l3.35 -17.24 17.24 -3.38c35.76,-7.05 84.56,-4.9 121.12,-3.15 38.13,1.83 76.68,4.8 114.63,9.06 33.95,3.81 72.5,14.5 85.91,49.84 13.79,36.36 -6.68,72.64 -9.39,104.91 32.65,2.73 61.67,0.3 74.5,-37.11 11.11,-32.34 0.58,-84.68 -23.34,-110.92zm495.1 -212.22c-8.86,-9.91 -11.51,-20.09 -13.2,-34.11l-1.74 -14.31 29.51 -24c-0.68,-38.59 -1.4,-80.9 3.27,-118.26 3.01,-24.08 9.3,-50.61 32.04,-63.61 18.63,-10.65 41.34,-7.59 61.88,-6.99 41.1,1.22 81.46,-3.46 122.38,-4.97 33.05,-1.21 75.81,-1.1 100.31,24.8 4.16,4.39 7.62,9.35 10.34,14.76 11.63,23.11 9.46,62.45 7.1,88.12 -1.63,17.73 -4.13,35.19 -17.32,48 26.54,33.04 15.39,65.81 16.31,112.04 0.54,27.36 2.42,54.6 6.88,81.61 3,18.11 7.32,35.73 10.83,53.69 14.03,71.67 -1.39,147.85 -17.19,218.52 16.51,21.79 26.62,28.18 20.43,67.01 -3.76,23.63 -13.79,44.6 -34.44,57.82 -27.9,17.86 -62.73,13.96 -94.14,17.83 -26.46,3.28 -57.42,7.74 -79.63,-10.13 -0.28,-0.22 -0.55,-0.45 -0.83,-0.68 -9.95,-2.85 -49.89,3.11 -59.24,4.54 -29.19,4.47 -42.85,-0.31 -70.47,-3.83l-17.26 -2.21 -4.62 -16.78c-15.5,-56.45 -35.61,-141.08 -20.11,-199.44 4.49,-16.95 11.75,-31.39 22.59,-45.13 5.69,-7.22 13.29,-14.45 18.25,-21.9 2.15,-3.21 3.32,-6.08 3.78,-9.94 0.34,-2.84 0.39,-5.27 -1.24,-7.7 -7.51,-11.23 -26.59,-21.32 -37.69,-37.37l-3.94 -5.7 -0.6 -6.9c-3.21,-37.08 0.18,-70.98 4.28,-107.71 1,-9.02 4.36,-35.27 3.48,-47.06zm37.87 -280.38c-20.87,-28.64 -40.97,-96.13 -42.97,-131.68l-1.54 -27.62 327.34 0.65 7.6 12.63c25.22,41.94 31.39,75.42 19.99,123.56l-4.53 19.08 -297.6 14.79 -8.3 -11.42z"/>
    <path class="fil1" d="M3730.41 1220.27c-1.1,-1.68 -2.35,-3.12 -3.79,-4.12 -9.81,-6.8 -44.17,-4.67 -55.74,-4.32 -53.2,1.65 -216.12,1.53 -258.14,-21.15l-98.12 -51.74 -1.07 -14.42c-1.93,-26.27 -1.76,-48.91 24.36,-59 5.47,-15.84 5.59,-65.58 5.53,-77.83 -0.26,-46.17 -3.66,-91.95 -8.52,-137.84 -11.39,-107.38 -26.51,-209.58 -28.92,-318.22l-0.32 -14.51 12.16 -7.93c15.22,-9.94 25.31,-20.14 39.09,-30.93 21.37,-16.73 48.17,-23.09 74.24,-28.67 67.23,-14.4 134.25,-19.96 202.5,-10.21 14.81,2.11 70.37,15.12 81.98,12.85 7.16,-1.4 15.32,-5.14 22.1,-7.88 12.64,-5.1 24.86,-9.39 38.29,-11.99 53.11,-10.36 189.57,-12.45 236.6,12.39 45.3,23.93 38.09,105.86 40.73,149.74 4.32,71.63 17.59,76.43 -12.43,148.72 -3.56,8.55 -14.93,32.77 -18.85,45.34 2.26,2.21 4.75,4.44 6.69,6.46 8.29,8.65 15.52,18.05 22.1,28.06l6.92 10.52 -3.92 11.95c-2.27,6.95 -4.33,15.72 -7.56,23.25l30.03 13.72 -29.88 26.62c-0.51,0.45 -1.13,1 -1.78,1.58 2.05,8.38 5.97,18.85 7.77,27.03 6.38,28.86 8.08,59.52 8.09,88.99 0,26.97 -0.87,59.78 -8.48,85.86 -3.63,12.47 -7.46,17.19 -12.5,27.27 0.24,5.92 4.64,19.89 6.1,24.67 17.73,57.95 56.94,74.86 7.44,136.64 -59.59,74.41 -77.99,28.41 -125.99,57.06 -39.89,23.8 -35.4,17.42 -79.66,19.63l-242.23 12.04c-54.17,0.98 -224.45,18.43 -259.21,-22.36 -21.36,-25.07 -29.18,-59.77 -18.37,-91.18l0.65 -1.93 0.97 -1.82c16.6,-31.28 63.85,-36.46 95.3,-38.58 44.57,-3.01 90.73,-0.98 135.42,-0.1 28.59,0.57 132.51,3.91 170.42,-13.67zm-41.17 -157.92c9.5,-10.91 15.48,-23.74 17.33,-38.85 1.72,-14.18 -2.23,-25 -1.34,-36.55 1.24,-16.1 4.19,-31.19 9.64,-46.39 2.11,-5.87 6.1,-14.1 7.3,-19.99 1.76,-8.79 -11.83,-29.87 -16.05,-36.56l-8.51 -13.42 8.03 -13.72c4.04,-6.91 8.81,-12.49 13.39,-18.17 -8.1,-4.43 -16.52,-8.91 -24.13,-15.12l-11.11 -9.05 1.68 -14.22c0.85,-7.26 2.27,-13.11 4.02,-18.07l-10.28 9.3c-4.9,4.4 -31.22,28.69 -30.46,36.42 0.53,5.4 13.34,25.33 16.33,30.67 16.52,29.4 10.91,83.97 9.71,117.28 -0.63,17.73 -5.28,71.61 14.46,86.46zm0.8 -281.67c4.55,-11.94 11.09,-18.56 16.3,-27.76l-25.71 -23.98 23.71 -112.61 0.16 -0.57c0.49,-1.9 1.42,-5.06 2.1,-7.97 -8.8,-3.46 -26.36,-7.13 -41.58,-9.93 -4.85,18.67 -9.75,22.71 -20.75,36.04 0.5,6.44 4.67,19.45 6.15,24 11.67,35.99 29.47,72.08 36.89,109.08l2.74 13.69zm810.72 211.18c-0.43,28.24 3.38,57.39 5.71,85.21 3.27,39.2 4.27,77.58 -4.72,116.17l-2.67 11.49 -10.4 5.59c-64.26,34.53 -214.1,29.88 -284.92,13.65l-17.57 -4.03 -2.45 -17.86c-4.05,-29.36 -10.76,-59.93 -16.34,-89.12 -3.55,-18.58 -19.35,-90.59 -16.59,-106.67l3.65 -21.14 37.6 -0.92c-12.27,-173.19 -29.91,-346.54 -21.92,-520.34l1.14 -24.94 24.95 0.02c67.88,0.08 133.76,8.92 201.94,4.15 34.26,-2.39 74.55,-10.14 105.87,7.87 30.72,17.66 19.52,20.31 57.04,11.08 14.78,-3.63 29.02,-7.99 43.17,-13.58 9.75,-3.86 19.38,-8.32 29.46,-11.26 32.52,-9.5 73.87,0.39 106.08,7.42 70.9,15.48 93.83,20.98 156.3,58.06l13.15 7.8 -0.37 15.29c-0.73,30.22 -0.99,60.53 -0.84,90.78 0.12,28.85 -0.36,63.52 3.56,91.95 11.96,86.82 10.86,73.89 -12,142.19 22.35,22.12 35.44,33.51 34.65,71.78 -0.61,30.16 -16.23,56.43 -16.89,85.22 -0.37,15.83 0.83,31.61 2.5,47.34 5.67,53.78 12.76,97.24 1.82,151.73l-4.18 20.81 -21.21 0.17c-56.51,0.43 -112.71,-5.44 -169.15,-6.35 -67.53,-1.11 -114.81,31.34 -154.29,-45.72l-3.38 -6.62 0.6 -7.42c1.14,-13.89 3.72,-26.95 11.65,-36.7 -1.68,-5.43 -3.82,-11.19 -5.14,-15.09 -11.93,-35.18 -12.5,-52.86 0.22,-87.93 1.25,-3.45 3.44,-9.1 4.9,-14 -7.17,-11.04 -8.03,-23.63 -7.51,-37.91 0.89,-24.64 5.95,-47.28 4.27,-72.23 -4.72,-70.22 -29.68,-164.1 -16.13,-231.75 3.27,-16.33 8.03,-25.45 14.98,-39.86 0.69,-1.42 1.25,-2.73 1.72,-4.02 -14.52,-18.74 -28.52,-34.93 -55.75,-31.41 -6.61,0.85 -16.28,2.55 -20.7,8.25 -4.59,5.94 -8.96,23.07 -12.33,36.49 7.72,10.23 14.47,20.98 18.85,33.27 5.64,15.78 6.78,32.53 7.66,49.12 1.4,26.43 2.49,52.57 4.66,78.98 3.27,39.96 -0.01,57.84 -4.12,96.09 -0.4,3.68 -1.4,13.56 -0.81,18.64 7.09,4.94 15.8,8.44 23.88,15.03l27.91 22.76 -30.31 19.45c-12.33,7.9 -24.67,15.52 -37.19,22.99zm-2122.51 -81.7c-49.35,-13.75 -101.67,-12.57 -151.02,-31.52 -23.34,-8.96 -45.62,-19.78 -69.34,-27.88 -24.8,-8.47 -47.76,-11.52 -72.17,-22.84 -61.51,-28.52 -108.05,-38.17 -108.92,-120.79 -0.32,-32 6.61,-42.47 18.65,-69.41 1.22,-2.74 2.23,-5.47 2.66,-8.47 0.36,-2.37 1.01,-5.65 -0.39,-7.78 -12.25,-18.65 -18.85,-22.59 -22.84,-47.59l-1.49 -9.3 4.77 -8.1c7.41,-12.54 14.42,-22.12 26.39,-30.56 4.32,-3.04 6.5,-4.68 9.97,-8.85 5.92,-7.15 3.55,-17.65 5.85,-27.03 5.14,-20.94 21.77,-31.71 40.85,-38.71 30.38,-11.15 71.1,-16.38 103.09,-20.57 91.47,-11.99 179.83,1.14 270.86,-2.27 58.31,-2.19 78.2,-12.69 136.87,10.33 25.72,10.1 51.85,19.22 77.48,29.37 15.11,5.98 30.21,12.55 40.58,25.64 8.55,10.78 12.16,23.84 16,36.8 5.85,19.77 12.17,38.6 19.87,57.76 8.63,21.44 22.18,51.05 14.99,74.37 -2.04,6.61 -5.38,12.16 -8.04,18.43 -3.58,8.41 -5.63,17.59 -7.09,26.56l-3.68 22.54 -22.82 -0.64c-71.41,-2.01 -146.25,-6.36 -217.19,2.35 -39.72,4.88 -81.51,-21.61 -94.02,-59.72 -11.21,-34.21 8.6,-62.06 5.88,-76.9 -10.37,-12.51 -44.38,-10.41 -57.38,-8.3 -13.62,2.22 -33.81,7.9 -46.52,16.8 1.18,19.62 34.26,77.69 39.76,94.63l7.68 23.63c69.7,0.21 103.57,14.6 173.57,34.17 27.47,7.68 54.92,15.5 82.28,23.61 20.9,6.19 72.84,19.96 90.06,31.01 33.72,21.66 58.09,136.61 65.85,176.91 9.2,47.75 9.52,66.77 -22.49,104.49 -2.11,2.51 -7.27,8.7 -9.72,12.97 5.16,8.67 11.64,14.8 16.65,27.04l10.96 26.81 -27.79 8.13c-107.9,31.58 -227.36,39 -338.99,51.25 -35.19,3.86 -170.05,6.67 -199.61,-2.01 -27.47,-8.05 -36.34,-19.89 -66.65,-22.89 -29.02,-2.86 -58.17,-2.55 -87.19,-6.16l-15.08 -1.86 -5.82 -14.03c-16.85,-40.65 -42.4,-92.09 -18.18,-135.01 5.15,-9.14 15.09,-26.07 12.66,-37.33 -2,-9.24 -5,-17.14 -6.44,-26.91 -2.63,-18.03 -0.83,-36.39 2.62,-54.17l3.36 -17.24 17.23 -3.4c35.76,-7.05 84.56,-4.89 121.12,-3.15 38.13,1.83 76.68,4.8 114.63,9.06 33.96,3.81 72.5,14.5 85.91,49.84 13.79,36.36 -6.68,72.64 -9.39,104.91 32.65,2.73 61.67,0.3 74.5,-37.1 11.11,-32.35 0.58,-84.69 -23.33,-110.93zm495.09 -212.22c-8.86,-9.91 -11.51,-20.09 -13.2,-34.11l-1.74 -14.31 29.51 -24c-0.68,-38.59 -1.39,-80.9 3.28,-118.26 3.01,-24.08 9.29,-50.61 32.03,-63.61 18.63,-10.65 41.35,-7.59 61.88,-6.99 41.1,1.23 81.46,-3.46 122.39,-4.96 33.04,-1.22 75.8,-1.11 100.3,24.8 4.16,4.39 7.62,9.35 10.34,14.75 11.63,23.11 9.46,62.45 7.1,88.13 -1.63,17.72 -4.13,35.18 -17.32,47.99 26.55,33.04 15.4,65.81 16.31,112.04 0.55,27.36 2.43,54.61 6.88,81.62 3,18.1 7.32,35.71 10.84,53.68 14.02,71.67 -1.4,147.86 -17.19,218.54 16.51,21.78 26.61,28.18 20.43,67 -3.77,23.63 -13.8,44.6 -34.45,57.82 -27.9,17.86 -62.73,13.96 -94.14,17.84 -26.46,3.27 -57.42,7.73 -79.63,-10.14 -0.27,-0.22 -0.54,-0.45 -0.83,-0.68 -9.95,-2.85 -49.89,3.11 -59.24,4.54 -29.19,4.47 -42.85,-0.31 -70.47,-3.83l-17.26 -2.2 -4.6 -16.79c-15.51,-56.45 -35.61,-141.07 -20.13,-199.44 4.5,-16.95 11.75,-31.39 22.59,-45.13 5.69,-7.21 13.29,-14.45 18.26,-21.9 2.15,-3.21 3.32,-6.08 3.77,-9.93 0.34,-2.85 0.39,-5.28 -1.24,-7.71 -7.51,-11.22 -26.59,-21.32 -37.69,-37.37l-3.94 -5.7 -0.59 -6.9c-3.21,-37.08 0.18,-70.97 4.27,-107.7 1,-9.03 4.36,-35.28 3.48,-47.08zm37.87 -280.37c-20.87,-28.65 -40.97,-96.14 -42.97,-131.7l-1.54 -27.62 327.34 0.65 7.6 12.63c25.22,41.94 31.4,75.43 19.99,123.56l-4.53 19.08 -297.6 14.79 -8.3 -11.41z"/>
    <path class="fil0" d="M3596.41 706.83c-6.39,-31.85 -24.63,-70.72 -36.11,-106.16 -19.67,-60.66 4.7,-35.96 14.63,-76.55l3.66 -21.65c97.39,16.02 94.18,22.44 85.9,54.52l-20.56 97.62 28 26.11c-8.03,29.52 -22.47,28.94 -25.82,57.33 15.54,12.67 30.27,16.43 43.68,27.54 -9.69,21.04 -17.98,23.93 -26.91,39.16 40.94,64.68 8.19,52.7 3.08,118.9 -0.42,5.5 15.39,60.71 -35.16,103.08 -82.92,-8.54 -26.88,-172.77 -53.79,-220.63 -21.36,-38 -37.59,-47.85 19.38,-99.28zm-329.61 -241.06c4.11,184.04 36.61,304.1 37.46,456.5 0.9,162.2 -35.47,60.33 -29.96,135.06l85.32 44.99c35.04,18.89 197.92,19.59 245.16,18.14 54.22,-1.69 80.26,-1.96 91.47,43.36 -55.01,67.26 -377.54,-3.96 -409.2,55.75 -7.18,20.85 -3.14,46.17 13.56,65.75 23.11,27.13 182.13,14.21 238.87,13.2l241.4 -12.03c46.63,-2.54 33.36,4.44 67.58,-15.97 56.11,-33.48 67.7,13.08 118.99,-50.96 38.5,-48.07 6.05,-53.57 -12.04,-112.69 -22.2,-72.59 13.77,-9.59 13.74,-145.43 -0.03,-123.01 -33.85,-111.69 -5.34,-137.1l-28.58 -13.06c27,-22.41 17.05,-4.13 28.54,-39.16 -37.09,-56.41 -48.3,-17.42 -12.25,-104.23 27.89,-67.15 14.9,-63.88 10.48,-137.13 -2.11,-35.15 2.81,-112.55 -26.86,-128.21 -36.81,-19.45 -163.95,-20.69 -219.41,-9.86 -26.04,5.07 -43.16,16.51 -60.37,19.87 -38.45,7.54 -108.7,-40.31 -284.03,-2.73 -72.5,15.53 -56.38,24.52 -104.54,55.94z"/>
    <path class="fil0" d="M4130.94 399.8c-8.39,182.78 12.03,369.46 23.78,544.58l-43.45 1.07c-1.73,10.01 28.35,153.63 33.05,187.79 69.33,15.89 211.36,18.55 266.73,-11.21 16.98,-72.85 -5.63,-145.11 -1.05,-210.71 19.63,-11.51 29.81,-17.67 48.57,-29.71 -24.16,-19.7 -37.68,-8.76 -32.53,-56.68 4.48,-41.75 7.97,-43.46 4.05,-91.18 -8.99,-109.55 2.41,-113.72 -33.68,-157.47 12.64,-41.45 10.05,-70.45 58.24,-76.68 44.63,-5.77 64.51,22.18 86.89,50.56 -1.81,23.7 -13.17,27.15 -18.91,55.74 -11.75,58.67 12.18,159.5 16.59,224.88 2.04,30.54 -3.27,48.44 -4.24,74.92 -1.61,44.32 19.99,7.72 1.07,59.88 -10.53,29.04 -10.23,40.58 -0.04,70.63 20.86,61.5 -1.19,13.2 -5.21,62.31 30.39,59.32 56.99,30.31 131.47,31.52 57.43,0.94 111.98,6.78 168.52,6.35 14.94,-74.42 -6.27,-130.61 -4.82,-194.54 0.75,-32.75 16.34,-58.2 16.9,-85.15 0.81,-40.21 -24.7,-45.86 -38.1,-64.99 26.77,-82.82 28.43,-52.43 15.69,-144.89 -5.16,-37.42 -3.97,-145.04 -2.96,-186.94 -60.6,-35.96 -70.22,-37.89 -148.55,-55.01 -108.85,-23.77 -79.43,-4.24 -166.9,17.27 -50.44,12.4 -45.66,3.82 -76.29,-13.8 -23.45,-13.48 -60.97,-6.56 -91.03,-4.45 -76.14,5.31 -132.22,-4.03 -203.78,-4.09z"/>
    <path class="fil0" d="M1935.36 504.47c5.74,35.83 28.1,30.74 23.29,63.31 -3.45,23.41 -21.47,32.66 -21.04,73.79 0.73,69.53 44.66,74.59 93.8,97.37 24.87,11.55 42.29,12.49 69.62,21.82 27.78,9.5 44.95,18.5 70.26,28.21 47.6,18.27 107.38,18.01 155.39,32.71 26.66,24.55 52.67,89.09 34.31,142.58 -18.61,54.21 -57.24,59.41 -123.93,52.36 -12.58,-61.48 63.34,-139.3 -54.7,-152.53 -50.93,-5.71 -177.46,-16.15 -227.81,-6.25 -14.87,76.47 26.08,59.19 -11.74,126.26 -18.11,32.1 6.27,80.12 19.57,112.18 28.76,3.57 58.06,3.26 86.54,6.08 40.04,3.95 41.94,15.17 71.43,23.82 20.23,5.94 162.4,4.07 189.41,1.11 108.79,-11.94 232.51,-20.5 334.51,-50.35 -12.19,-29.8 -35.69,-27.86 -2.67,-66.78 23.95,-28.24 25.48,-37.31 16.75,-82.68 -6.4,-33.26 -31.78,-145.4 -54.32,-159.85 -14.29,-9.18 -140.51,-44.55 -165.26,-51.46 -71.41,-19.97 -98.61,-35.66 -185.42,-32.93l-13.62 -41.95c-8.74,-26.51 -52.06,-90.56 -38.26,-117.24 31.92,-30.91 127.26,-46.33 151.1,-5.2 10.56,28.23 -15.17,48.84 -4.95,80 10.02,30.56 43.47,44.71 66.03,41.95 70.15,-8.62 148.49,-4.57 221.11,-2.54 10.24,-62.79 31.64,-31.03 1.7,-105.41 -46.25,-114.91 3.77,-78.86 -139.25,-135 -53.89,-21.16 -68.37,-10.72 -126.35,-8.54 -89.98,3.37 -175.98,-10.06 -268.45,2.06 -170.96,22.4 -102.21,39.87 -133.08,77.09 -14.66,17.67 -18.27,9.4 -33.97,36.01z"/>
    <path class="fil0" d="M2848.95 572.48l-28.18 22.91c5.06,41.69 20.16,-6.32 9.74,87.22 -4.04,36.3 -7.38,65.93 -4.2,102.56 16.84,24.36 47.38,29.77 43.37,63.05 -6.66,55.33 -90.67,28.15 -25.25,266.38 26.75,3.41 36.15,8.07 63.22,3.92 124.16,-19.02 40.06,18.58 140.46,6.17 47.54,-5.87 96.61,5.04 105.99,-53.84 5.28,-33.15 -7.06,-34.24 -22.68,-57.17 53.53,-238.12 4.78,-189.81 1.42,-359.05 -1.23,-61.37 12.4,-79.81 -24.3,-109.68 12.17,-30.19 21.37,-9.28 25.41,-53.24 1.85,-20.17 4.08,-57.07 -4.43,-74 -22,-43.7 -115.43,-17.39 -210.47,-20.21 -61.22,-1.81 -73.17,-14.36 -70.1,175.01z"/>
    <path class="fil0" d="M2867.02 336.91l263.91 -13.11c10.77,-45.46 2.37,-71.93 -16.96,-104.09l-284.95 -0.57c1.83,32.64 21.37,94.94 38,117.77z"/>
   </g>
  </g>
 </g>
</svg>
